<svg xmlns="http://www.w3.org/2000/svg" xmlns:xlink="http://www.w3.org/1999/xlink" viewBox="0 0 1200 318" width="1200" height="318" role="img" aria-label="Contribution heatmap for the last twelve months. 707 contributions in that period, 2,043 since July 2022, longest streak 23 days, 350 active days.">
<title>Contribution signal</title>
<style>
  .c{animation:fade .55s ease-out both}
  @keyframes fade{from{opacity:0;transform:translateY(3px)}to{opacity:1;transform:none}}
  @media (prefers-reduced-motion:reduce){.c{animation:none}}
 </style>
<defs>
<linearGradient id="sgbg" x1="0" y1="0" x2="1" y2="1"><stop offset="0%" stop-color="#0C2149"/><stop offset="55%" stop-color="#091A38"/><stop offset="100%" stop-color="#061228"/></linearGradient>
<linearGradient id="sged" x1="0" y1="0" x2="0" y2="1"><stop offset="0%" stop-color="#2BA8E0"/><stop offset="100%" stop-color="#3EB54A"/></linearGradient>
<clipPath id="sgcl"><rect x="1" y="1" width="1198" height="316" rx="16"/></clipPath>
</defs>
<g clip-path="url(#sgcl)"><rect width="1200" height="318" fill="url(#sgbg)"/><rect x="0" y="0" width="5" height="318" fill="url(#sged)"/></g>
<rect x="1" y="1" width="1198" height="316" rx="16" fill="none" stroke="#17376A" stroke-width="1.5"/>
<text x="52" y="52" font-family="SFMono-Regular, Consolas, Menlo, monospace" font-size="13" font-weight="600" letter-spacing="4.5" fill="#2BA8E0">SIGNAL</text>
<line x1="145.4" y1="47.0" x2="874.2" y2="47.0" stroke="#17376A" stroke-width="1"/>
<circle cx="890.2" cy="47.0" r="4" fill="#3EB54A"/>
<text x="1148" y="52" text-anchor="end" font-family="SFMono-Regular, Consolas, Menlo, monospace" font-size="12.5" letter-spacing="1.6" fill="#7E93B2">707 IN THE LAST 12 MONTHS</text>
<text x="112" y="96" font-family="SFMono-Regular, Consolas, Menlo, monospace" font-size="11" letter-spacing="1.0" fill="#5F779A">Sep</text>
<text x="192" y="96" font-family="SFMono-Regular, Consolas, Menlo, monospace" font-size="11" letter-spacing="1.0" fill="#5F779A">Oct</text>
<text x="272" y="96" font-family="SFMono-Regular, Consolas, Menlo, monospace" font-size="11" letter-spacing="1.0" fill="#5F779A">Nov</text>
<text x="372" y="96" font-family="SFMono-Regular, Consolas, Menlo, monospace" font-size="11" letter-spacing="1.0" fill="#5F779A">Dec</text>
<text x="452" y="96" font-family="SFMono-Regular, Consolas, Menlo, monospace" font-size="11" letter-spacing="1.0" fill="#5F779A">Jan</text>
<text x="532" y="96" font-family="SFMono-Regular, Consolas, Menlo, monospace" font-size="11" letter-spacing="1.0" fill="#5F779A">Feb</text>
<text x="612" y="96" font-family="SFMono-Regular, Consolas, Menlo, monospace" font-size="11" letter-spacing="1.0" fill="#5F779A">Mar</text>
<text x="712" y="96" font-family="SFMono-Regular, Consolas, Menlo, monospace" font-size="11" letter-spacing="1.0" fill="#5F779A">Apr</text>
<text x="792" y="96" font-family="SFMono-Regular, Consolas, Menlo, monospace" font-size="11" letter-spacing="1.0" fill="#5F779A">May</text>
<text x="892" y="96" font-family="SFMono-Regular, Consolas, Menlo, monospace" font-size="11" letter-spacing="1.0" fill="#5F779A">Jun</text>
<text x="972" y="96" font-family="SFMono-Regular, Consolas, Menlo, monospace" font-size="11" letter-spacing="1.0" fill="#5F779A">Jul</text>
<text x="1052" y="96" font-family="SFMono-Regular, Consolas, Menlo, monospace" font-size="11" letter-spacing="1.0" fill="#5F779A">Aug</text>
<rect class="c" style="animation-delay:0.000s" x="52.0" y="104.0" width="16" height="16" rx="3.5" fill="#0E2547"/>
<rect class="c" style="animation-delay:0.000s" x="52.0" y="124.0" width="16" height="16" rx="3.5" fill="#0E2547"/>
<rect class="c" style="animation-delay:0.000s" x="52.0" y="144.0" width="16" height="16" rx="3.5" fill="#0E2547"/>
<rect class="c" style="animation-delay:0.000s" x="52.0" y="164.0" width="16" height="16" rx="3.5" fill="#0E2547"/>
<rect class="c" style="animation-delay:0.000s" x="52.0" y="184.0" width="16" height="16" rx="3.5" fill="#0E2547"/>
<rect class="c" style="animation-delay:0.000s" x="52.0" y="204.0" width="16" height="16" rx="3.5" fill="#0E2547"/>
<rect class="c" style="animation-delay:0.000s" x="52.0" y="224.0" width="16" height="16" rx="3.5" fill="#0E2547"/>
<rect class="c" style="animation-delay:0.022s" x="72.0" y="104.0" width="16" height="16" rx="3.5" fill="#0E2547"/>
<rect class="c" style="animation-delay:0.022s" x="72.0" y="124.0" width="16" height="16" rx="3.5" fill="#0E2547"/>
<rect class="c" style="animation-delay:0.022s" x="72.0" y="144.0" width="16" height="16" rx="3.5" fill="#0E2547"/>
<rect class="c" style="animation-delay:0.022s" x="72.0" y="164.0" width="16" height="16" rx="3.5" fill="#0E2547"/>
<rect class="c" style="animation-delay:0.022s" x="72.0" y="184.0" width="16" height="16" rx="3.5" fill="#0E2547"/>
<rect class="c" style="animation-delay:0.022s" x="72.0" y="204.0" width="16" height="16" rx="3.5" fill="#0E2547"/>
<rect class="c" style="animation-delay:0.022s" x="72.0" y="224.0" width="16" height="16" rx="3.5" fill="#17456B"/>
<rect class="c" style="animation-delay:0.044s" x="92.0" y="104.0" width="16" height="16" rx="3.5" fill="#0E2547"/>
<rect class="c" style="animation-delay:0.044s" x="92.0" y="124.0" width="16" height="16" rx="3.5" fill="#0E2547"/>
<rect class="c" style="animation-delay:0.044s" x="92.0" y="144.0" width="16" height="16" rx="3.5" fill="#0E2547"/>
<rect class="c" style="animation-delay:0.044s" x="92.0" y="164.0" width="16" height="16" rx="3.5" fill="#0E2547"/>
<rect class="c" style="animation-delay:0.044s" x="92.0" y="184.0" width="16" height="16" rx="3.5" fill="#0E2547"/>
<rect class="c" style="animation-delay:0.044s" x="92.0" y="204.0" width="16" height="16" rx="3.5" fill="#0E2547"/>
<rect class="c" style="animation-delay:0.044s" x="92.0" y="224.0" width="16" height="16" rx="3.5" fill="#0E2547"/>
<rect class="c" style="animation-delay:0.066s" x="112.0" y="104.0" width="16" height="16" rx="3.5" fill="#0E2547"/>
<rect class="c" style="animation-delay:0.066s" x="112.0" y="124.0" width="16" height="16" rx="3.5" fill="#0E2547"/>
<rect class="c" style="animation-delay:0.066s" x="112.0" y="144.0" width="16" height="16" rx="3.5" fill="#0E2547"/>
<rect class="c" style="animation-delay:0.066s" x="112.0" y="164.0" width="16" height="16" rx="3.5" fill="#0E2547"/>
<rect class="c" style="animation-delay:0.066s" x="112.0" y="184.0" width="16" height="16" rx="3.5" fill="#0E2547"/>
<rect class="c" style="animation-delay:0.066s" x="112.0" y="204.0" width="16" height="16" rx="3.5" fill="#0E2547"/>
<rect class="c" style="animation-delay:0.066s" x="112.0" y="224.0" width="16" height="16" rx="3.5" fill="#0E2547"/>
<rect class="c" style="animation-delay:0.088s" x="132.0" y="104.0" width="16" height="16" rx="3.5" fill="#0E2547"/>
<rect class="c" style="animation-delay:0.088s" x="132.0" y="124.0" width="16" height="16" rx="3.5" fill="#0E2547"/>
<rect class="c" style="animation-delay:0.088s" x="132.0" y="144.0" width="16" height="16" rx="3.5" fill="#0E2547"/>
<rect class="c" style="animation-delay:0.088s" x="132.0" y="164.0" width="16" height="16" rx="3.5" fill="#0E2547"/>
<rect class="c" style="animation-delay:0.088s" x="132.0" y="184.0" width="16" height="16" rx="3.5" fill="#0E2547"/>
<rect class="c" style="animation-delay:0.088s" x="132.0" y="204.0" width="16" height="16" rx="3.5" fill="#0E2547"/>
<rect class="c" style="animation-delay:0.088s" x="132.0" y="224.0" width="16" height="16" rx="3.5" fill="#0E2547"/>
<rect class="c" style="animation-delay:0.110s" x="152.0" y="104.0" width="16" height="16" rx="3.5" fill="#0E2547"/>
<rect class="c" style="animation-delay:0.110s" x="152.0" y="124.0" width="16" height="16" rx="3.5" fill="#0E2547"/>
<rect class="c" style="animation-delay:0.110s" x="152.0" y="144.0" width="16" height="16" rx="3.5" fill="#0E2547"/>
<rect class="c" style="animation-delay:0.110s" x="152.0" y="164.0" width="16" height="16" rx="3.5" fill="#0E2547"/>
<rect class="c" style="animation-delay:0.110s" x="152.0" y="184.0" width="16" height="16" rx="3.5" fill="#0E2547"/>
<rect class="c" style="animation-delay:0.110s" x="152.0" y="204.0" width="16" height="16" rx="3.5" fill="#0E2547"/>
<rect class="c" style="animation-delay:0.110s" x="152.0" y="224.0" width="16" height="16" rx="3.5" fill="#0E2547"/>
<rect class="c" style="animation-delay:0.132s" x="172.0" y="104.0" width="16" height="16" rx="3.5" fill="#0E2547"/>
<rect class="c" style="animation-delay:0.132s" x="172.0" y="124.0" width="16" height="16" rx="3.5" fill="#0E2547"/>
<rect class="c" style="animation-delay:0.132s" x="172.0" y="144.0" width="16" height="16" rx="3.5" fill="#0E2547"/>
<rect class="c" style="animation-delay:0.132s" x="172.0" y="164.0" width="16" height="16" rx="3.5" fill="#0E2547"/>
<rect class="c" style="animation-delay:0.132s" x="172.0" y="184.0" width="16" height="16" rx="3.5" fill="#0E2547"/>
<rect class="c" style="animation-delay:0.132s" x="172.0" y="204.0" width="16" height="16" rx="3.5" fill="#0E2547"/>
<rect class="c" style="animation-delay:0.132s" x="172.0" y="224.0" width="16" height="16" rx="3.5" fill="#0E2547"/>
<rect class="c" style="animation-delay:0.154s" x="192.0" y="104.0" width="16" height="16" rx="3.5" fill="#0E2547"/>
<rect class="c" style="animation-delay:0.154s" x="192.0" y="124.0" width="16" height="16" rx="3.5" fill="#0E2547"/>
<rect class="c" style="animation-delay:0.154s" x="192.0" y="144.0" width="16" height="16" rx="3.5" fill="#0E2547"/>
<rect class="c" style="animation-delay:0.154s" x="192.0" y="164.0" width="16" height="16" rx="3.5" fill="#0E2547"/>
<rect class="c" style="animation-delay:0.154s" x="192.0" y="184.0" width="16" height="16" rx="3.5" fill="#0E2547"/>
<rect class="c" style="animation-delay:0.154s" x="192.0" y="204.0" width="16" height="16" rx="3.5" fill="#0E2547"/>
<rect class="c" style="animation-delay:0.154s" x="192.0" y="224.0" width="16" height="16" rx="3.5" fill="#0E2547"/>
<rect class="c" style="animation-delay:0.176s" x="212.0" y="104.0" width="16" height="16" rx="3.5" fill="#0E2547"/>
<rect class="c" style="animation-delay:0.176s" x="212.0" y="124.0" width="16" height="16" rx="3.5" fill="#0E2547"/>
<rect class="c" style="animation-delay:0.176s" x="212.0" y="144.0" width="16" height="16" rx="3.5" fill="#0E2547"/>
<rect class="c" style="animation-delay:0.176s" x="212.0" y="164.0" width="16" height="16" rx="3.5" fill="#0E2547"/>
<rect class="c" style="animation-delay:0.176s" x="212.0" y="184.0" width="16" height="16" rx="3.5" fill="#0E2547"/>
<rect class="c" style="animation-delay:0.176s" x="212.0" y="204.0" width="16" height="16" rx="3.5" fill="#0E2547"/>
<rect class="c" style="animation-delay:0.176s" x="212.0" y="224.0" width="16" height="16" rx="3.5" fill="#0E2547"/>
<rect class="c" style="animation-delay:0.198s" x="232.0" y="104.0" width="16" height="16" rx="3.5" fill="#0E2547"/>
<rect class="c" style="animation-delay:0.198s" x="232.0" y="124.0" width="16" height="16" rx="3.5" fill="#0E2547"/>
<rect class="c" style="animation-delay:0.198s" x="232.0" y="144.0" width="16" height="16" rx="3.5" fill="#0E2547"/>
<rect class="c" style="animation-delay:0.198s" x="232.0" y="164.0" width="16" height="16" rx="3.5" fill="#0E2547"/>
<rect class="c" style="animation-delay:0.198s" x="232.0" y="184.0" width="16" height="16" rx="3.5" fill="#0E2547"/>
<rect class="c" style="animation-delay:0.198s" x="232.0" y="204.0" width="16" height="16" rx="3.5" fill="#0E2547"/>
<rect class="c" style="animation-delay:0.198s" x="232.0" y="224.0" width="16" height="16" rx="3.5" fill="#0E2547"/>
<rect class="c" style="animation-delay:0.220s" x="252.0" y="104.0" width="16" height="16" rx="3.5" fill="#0E2547"/>
<rect class="c" style="animation-delay:0.220s" x="252.0" y="124.0" width="16" height="16" rx="3.5" fill="#0E2547"/>
<rect class="c" style="animation-delay:0.220s" x="252.0" y="144.0" width="16" height="16" rx="3.5" fill="#0E2547"/>
<rect class="c" style="animation-delay:0.220s" x="252.0" y="164.0" width="16" height="16" rx="3.5" fill="#0E2547"/>
<rect class="c" style="animation-delay:0.220s" x="252.0" y="184.0" width="16" height="16" rx="3.5" fill="#0E2547"/>
<rect class="c" style="animation-delay:0.220s" x="252.0" y="204.0" width="16" height="16" rx="3.5" fill="#0E2547"/>
<rect class="c" style="animation-delay:0.220s" x="252.0" y="224.0" width="16" height="16" rx="3.5" fill="#0E2547"/>
<rect class="c" style="animation-delay:0.242s" x="272.0" y="104.0" width="16" height="16" rx="3.5" fill="#0E2547"/>
<rect class="c" style="animation-delay:0.242s" x="272.0" y="124.0" width="16" height="16" rx="3.5" fill="#0E2547"/>
<rect class="c" style="animation-delay:0.242s" x="272.0" y="144.0" width="16" height="16" rx="3.5" fill="#0E2547"/>
<rect class="c" style="animation-delay:0.242s" x="272.0" y="164.0" width="16" height="16" rx="3.5" fill="#0E2547"/>
<rect class="c" style="animation-delay:0.242s" x="272.0" y="184.0" width="16" height="16" rx="3.5" fill="#0E2547"/>
<rect class="c" style="animation-delay:0.242s" x="272.0" y="204.0" width="16" height="16" rx="3.5" fill="#0E2547"/>
<rect class="c" style="animation-delay:0.242s" x="272.0" y="224.0" width="16" height="16" rx="3.5" fill="#0E2547"/>
<rect class="c" style="animation-delay:0.264s" x="292.0" y="104.0" width="16" height="16" rx="3.5" fill="#0E2547"/>
<rect class="c" style="animation-delay:0.264s" x="292.0" y="124.0" width="16" height="16" rx="3.5" fill="#0E2547"/>
<rect class="c" style="animation-delay:0.264s" x="292.0" y="144.0" width="16" height="16" rx="3.5" fill="#0E2547"/>
<rect class="c" style="animation-delay:0.264s" x="292.0" y="164.0" width="16" height="16" rx="3.5" fill="#0E2547"/>
<rect class="c" style="animation-delay:0.264s" x="292.0" y="184.0" width="16" height="16" rx="3.5" fill="#0E2547"/>
<rect class="c" style="animation-delay:0.264s" x="292.0" y="204.0" width="16" height="16" rx="3.5" fill="#0E2547"/>
<rect class="c" style="animation-delay:0.264s" x="292.0" y="224.0" width="16" height="16" rx="3.5" fill="#0E2547"/>
<rect class="c" style="animation-delay:0.286s" x="312.0" y="104.0" width="16" height="16" rx="3.5" fill="#0E2547"/>
<rect class="c" style="animation-delay:0.286s" x="312.0" y="124.0" width="16" height="16" rx="3.5" fill="#0E2547"/>
<rect class="c" style="animation-delay:0.286s" x="312.0" y="144.0" width="16" height="16" rx="3.5" fill="#0E2547"/>
<rect class="c" style="animation-delay:0.286s" x="312.0" y="164.0" width="16" height="16" rx="3.5" fill="#0E2547"/>
<rect class="c" style="animation-delay:0.286s" x="312.0" y="184.0" width="16" height="16" rx="3.5" fill="#0E2547"/>
<rect class="c" style="animation-delay:0.286s" x="312.0" y="204.0" width="16" height="16" rx="3.5" fill="#0E2547"/>
<rect class="c" style="animation-delay:0.286s" x="312.0" y="224.0" width="16" height="16" rx="3.5" fill="#0E2547"/>
<rect class="c" style="animation-delay:0.308s" x="332.0" y="104.0" width="16" height="16" rx="3.5" fill="#0E2547"/>
<rect class="c" style="animation-delay:0.308s" x="332.0" y="124.0" width="16" height="16" rx="3.5" fill="#0E2547"/>
<rect class="c" style="animation-delay:0.308s" x="332.0" y="144.0" width="16" height="16" rx="3.5" fill="#0E2547"/>
<rect class="c" style="animation-delay:0.308s" x="332.0" y="164.0" width="16" height="16" rx="3.5" fill="#0E2547"/>
<rect class="c" style="animation-delay:0.308s" x="332.0" y="184.0" width="16" height="16" rx="3.5" fill="#0E2547"/>
<rect class="c" style="animation-delay:0.308s" x="332.0" y="204.0" width="16" height="16" rx="3.5" fill="#0E2547"/>
<rect class="c" style="animation-delay:0.308s" x="332.0" y="224.0" width="16" height="16" rx="3.5" fill="#0E2547"/>
<rect class="c" style="animation-delay:0.330s" x="352.0" y="104.0" width="16" height="16" rx="3.5" fill="#0E2547"/>
<rect class="c" style="animation-delay:0.330s" x="352.0" y="124.0" width="16" height="16" rx="3.5" fill="#0E2547"/>
<rect class="c" style="animation-delay:0.330s" x="352.0" y="144.0" width="16" height="16" rx="3.5" fill="#0E2547"/>
<rect class="c" style="animation-delay:0.330s" x="352.0" y="164.0" width="16" height="16" rx="3.5" fill="#0E2547"/>
<rect class="c" style="animation-delay:0.330s" x="352.0" y="184.0" width="16" height="16" rx="3.5" fill="#0E2547"/>
<rect class="c" style="animation-delay:0.330s" x="352.0" y="204.0" width="16" height="16" rx="3.5" fill="#0E2547"/>
<rect class="c" style="animation-delay:0.330s" x="352.0" y="224.0" width="16" height="16" rx="3.5" fill="#0E2547"/>
<rect class="c" style="animation-delay:0.352s" x="372.0" y="104.0" width="16" height="16" rx="3.5" fill="#0E2547"/>
<rect class="c" style="animation-delay:0.352s" x="372.0" y="124.0" width="16" height="16" rx="3.5" fill="#0E2547"/>
<rect class="c" style="animation-delay:0.352s" x="372.0" y="144.0" width="16" height="16" rx="3.5" fill="#0E2547"/>
<rect class="c" style="animation-delay:0.352s" x="372.0" y="164.0" width="16" height="16" rx="3.5" fill="#0E2547"/>
<rect class="c" style="animation-delay:0.352s" x="372.0" y="184.0" width="16" height="16" rx="3.5" fill="#0E2547"/>
<rect class="c" style="animation-delay:0.352s" x="372.0" y="204.0" width="16" height="16" rx="3.5" fill="#0E2547"/>
<rect class="c" style="animation-delay:0.352s" x="372.0" y="224.0" width="16" height="16" rx="3.5" fill="#0E2547"/>
<rect class="c" style="animation-delay:0.374s" x="392.0" y="104.0" width="16" height="16" rx="3.5" fill="#0E2547"/>
<rect class="c" style="animation-delay:0.374s" x="392.0" y="124.0" width="16" height="16" rx="3.5" fill="#0E2547"/>
<rect class="c" style="animation-delay:0.374s" x="392.0" y="144.0" width="16" height="16" rx="3.5" fill="#0E2547"/>
<rect class="c" style="animation-delay:0.374s" x="392.0" y="164.0" width="16" height="16" rx="3.5" fill="#0E2547"/>
<rect class="c" style="animation-delay:0.374s" x="392.0" y="184.0" width="16" height="16" rx="3.5" fill="#0E2547"/>
<rect class="c" style="animation-delay:0.374s" x="392.0" y="204.0" width="16" height="16" rx="3.5" fill="#0E2547"/>
<rect class="c" style="animation-delay:0.374s" x="392.0" y="224.0" width="16" height="16" rx="3.5" fill="#0E2547"/>
<rect class="c" style="animation-delay:0.396s" x="412.0" y="104.0" width="16" height="16" rx="3.5" fill="#0E2547"/>
<rect class="c" style="animation-delay:0.396s" x="412.0" y="124.0" width="16" height="16" rx="3.5" fill="#0E2547"/>
<rect class="c" style="animation-delay:0.396s" x="412.0" y="144.0" width="16" height="16" rx="3.5" fill="#0E2547"/>
<rect class="c" style="animation-delay:0.396s" x="412.0" y="164.0" width="16" height="16" rx="3.5" fill="#0E2547"/>
<rect class="c" style="animation-delay:0.396s" x="412.0" y="184.0" width="16" height="16" rx="3.5" fill="#0E2547"/>
<rect class="c" style="animation-delay:0.396s" x="412.0" y="204.0" width="16" height="16" rx="3.5" fill="#0E2547"/>
<rect class="c" style="animation-delay:0.396s" x="412.0" y="224.0" width="16" height="16" rx="3.5" fill="#0E2547"/>
<rect class="c" style="animation-delay:0.418s" x="432.0" y="104.0" width="16" height="16" rx="3.5" fill="#0E2547"/>
<rect class="c" style="animation-delay:0.418s" x="432.0" y="124.0" width="16" height="16" rx="3.5" fill="#0E2547"/>
<rect class="c" style="animation-delay:0.418s" x="432.0" y="144.0" width="16" height="16" rx="3.5" fill="#0E2547"/>
<rect class="c" style="animation-delay:0.418s" x="432.0" y="164.0" width="16" height="16" rx="3.5" fill="#0E2547"/>
<rect class="c" style="animation-delay:0.418s" x="432.0" y="184.0" width="16" height="16" rx="3.5" fill="#0E2547"/>
<rect class="c" style="animation-delay:0.418s" x="432.0" y="204.0" width="16" height="16" rx="3.5" fill="#0E2547"/>
<rect class="c" style="animation-delay:0.418s" x="432.0" y="224.0" width="16" height="16" rx="3.5" fill="#0E2547"/>
<rect class="c" style="animation-delay:0.440s" x="452.0" y="104.0" width="16" height="16" rx="3.5" fill="#0E2547"/>
<rect class="c" style="animation-delay:0.440s" x="452.0" y="124.0" width="16" height="16" rx="3.5" fill="#0E2547"/>
<rect class="c" style="animation-delay:0.440s" x="452.0" y="144.0" width="16" height="16" rx="3.5" fill="#0E2547"/>
<rect class="c" style="animation-delay:0.440s" x="452.0" y="164.0" width="16" height="16" rx="3.5" fill="#0E2547"/>
<rect class="c" style="animation-delay:0.440s" x="452.0" y="184.0" width="16" height="16" rx="3.5" fill="#0E2547"/>
<rect class="c" style="animation-delay:0.440s" x="452.0" y="204.0" width="16" height="16" rx="3.5" fill="#0E2547"/>
<rect class="c" style="animation-delay:0.440s" x="452.0" y="224.0" width="16" height="16" rx="3.5" fill="#0E2547"/>
<rect class="c" style="animation-delay:0.462s" x="472.0" y="104.0" width="16" height="16" rx="3.5" fill="#0E2547"/>
<rect class="c" style="animation-delay:0.462s" x="472.0" y="124.0" width="16" height="16" rx="3.5" fill="#0E2547"/>
<rect class="c" style="animation-delay:0.462s" x="472.0" y="144.0" width="16" height="16" rx="3.5" fill="#0E2547"/>
<rect class="c" style="animation-delay:0.462s" x="472.0" y="164.0" width="16" height="16" rx="3.5" fill="#0E2547"/>
<rect class="c" style="animation-delay:0.462s" x="472.0" y="184.0" width="16" height="16" rx="3.5" fill="#0E2547"/>
<rect class="c" style="animation-delay:0.462s" x="472.0" y="204.0" width="16" height="16" rx="3.5" fill="#0E2547"/>
<rect class="c" style="animation-delay:0.462s" x="472.0" y="224.0" width="16" height="16" rx="3.5" fill="#0E2547"/>
<rect class="c" style="animation-delay:0.484s" x="492.0" y="104.0" width="16" height="16" rx="3.5" fill="#0E2547"/>
<rect class="c" style="animation-delay:0.484s" x="492.0" y="124.0" width="16" height="16" rx="3.5" fill="#0E2547"/>
<rect class="c" style="animation-delay:0.484s" x="492.0" y="144.0" width="16" height="16" rx="3.5" fill="#0E2547"/>
<rect class="c" style="animation-delay:0.484s" x="492.0" y="164.0" width="16" height="16" rx="3.5" fill="#0E2547"/>
<rect class="c" style="animation-delay:0.484s" x="492.0" y="184.0" width="16" height="16" rx="3.5" fill="#0E2547"/>
<rect class="c" style="animation-delay:0.484s" x="492.0" y="204.0" width="16" height="16" rx="3.5" fill="#0E2547"/>
<rect class="c" style="animation-delay:0.484s" x="492.0" y="224.0" width="16" height="16" rx="3.5" fill="#0E2547"/>
<rect class="c" style="animation-delay:0.506s" x="512.0" y="104.0" width="16" height="16" rx="3.5" fill="#0E2547"/>
<rect class="c" style="animation-delay:0.506s" x="512.0" y="124.0" width="16" height="16" rx="3.5" fill="#0E2547"/>
<rect class="c" style="animation-delay:0.506s" x="512.0" y="144.0" width="16" height="16" rx="3.5" fill="#0E2547"/>
<rect class="c" style="animation-delay:0.506s" x="512.0" y="164.0" width="16" height="16" rx="3.5" fill="#0E2547"/>
<rect class="c" style="animation-delay:0.506s" x="512.0" y="184.0" width="16" height="16" rx="3.5" fill="#0E2547"/>
<rect class="c" style="animation-delay:0.506s" x="512.0" y="204.0" width="16" height="16" rx="3.5" fill="#0E2547"/>
<rect class="c" style="animation-delay:0.506s" x="512.0" y="224.0" width="16" height="16" rx="3.5" fill="#0E2547"/>
<rect class="c" style="animation-delay:0.528s" x="532.0" y="104.0" width="16" height="16" rx="3.5" fill="#0E2547"/>
<rect class="c" style="animation-delay:0.528s" x="532.0" y="124.0" width="16" height="16" rx="3.5" fill="#0E2547"/>
<rect class="c" style="animation-delay:0.528s" x="532.0" y="144.0" width="16" height="16" rx="3.5" fill="#0E2547"/>
<rect class="c" style="animation-delay:0.528s" x="532.0" y="164.0" width="16" height="16" rx="3.5" fill="#0E2547"/>
<rect class="c" style="animation-delay:0.528s" x="532.0" y="184.0" width="16" height="16" rx="3.5" fill="#0E2547"/>
<rect class="c" style="animation-delay:0.528s" x="532.0" y="204.0" width="16" height="16" rx="3.5" fill="#0E2547"/>
<rect class="c" style="animation-delay:0.528s" x="532.0" y="224.0" width="16" height="16" rx="3.5" fill="#0E2547"/>
<rect class="c" style="animation-delay:0.550s" x="552.0" y="104.0" width="16" height="16" rx="3.5" fill="#0E2547"/>
<rect class="c" style="animation-delay:0.550s" x="552.0" y="124.0" width="16" height="16" rx="3.5" fill="#0E2547"/>
<rect class="c" style="animation-delay:0.550s" x="552.0" y="144.0" width="16" height="16" rx="3.5" fill="#0E2547"/>
<rect class="c" style="animation-delay:0.550s" x="552.0" y="164.0" width="16" height="16" rx="3.5" fill="#0E2547"/>
<rect class="c" style="animation-delay:0.550s" x="552.0" y="184.0" width="16" height="16" rx="3.5" fill="#0E2547"/>
<rect class="c" style="animation-delay:0.550s" x="552.0" y="204.0" width="16" height="16" rx="3.5" fill="#0E2547"/>
<rect class="c" style="animation-delay:0.550s" x="552.0" y="224.0" width="16" height="16" rx="3.5" fill="#0E2547"/>
<rect class="c" style="animation-delay:0.572s" x="572.0" y="104.0" width="16" height="16" rx="3.5" fill="#0E2547"/>
<rect class="c" style="animation-delay:0.572s" x="572.0" y="124.0" width="16" height="16" rx="3.5" fill="#0E2547"/>
<rect class="c" style="animation-delay:0.572s" x="572.0" y="144.0" width="16" height="16" rx="3.5" fill="#0E2547"/>
<rect class="c" style="animation-delay:0.572s" x="572.0" y="164.0" width="16" height="16" rx="3.5" fill="#0E2547"/>
<rect class="c" style="animation-delay:0.572s" x="572.0" y="184.0" width="16" height="16" rx="3.5" fill="#0E2547"/>
<rect class="c" style="animation-delay:0.572s" x="572.0" y="204.0" width="16" height="16" rx="3.5" fill="#0E2547"/>
<rect class="c" style="animation-delay:0.572s" x="572.0" y="224.0" width="16" height="16" rx="3.5" fill="#0E2547"/>
<rect class="c" style="animation-delay:0.594s" x="592.0" y="104.0" width="16" height="16" rx="3.5" fill="#0E2547"/>
<rect class="c" style="animation-delay:0.594s" x="592.0" y="124.0" width="16" height="16" rx="3.5" fill="#0E2547"/>
<rect class="c" style="animation-delay:0.594s" x="592.0" y="144.0" width="16" height="16" rx="3.5" fill="#0E2547"/>
<rect class="c" style="animation-delay:0.594s" x="592.0" y="164.0" width="16" height="16" rx="3.5" fill="#0E2547"/>
<rect class="c" style="animation-delay:0.594s" x="592.0" y="184.0" width="16" height="16" rx="3.5" fill="#0E2547"/>
<rect class="c" style="animation-delay:0.594s" x="592.0" y="204.0" width="16" height="16" rx="3.5" fill="#0E2547"/>
<rect class="c" style="animation-delay:0.594s" x="592.0" y="224.0" width="16" height="16" rx="3.5" fill="#0E2547"/>
<rect class="c" style="animation-delay:0.616s" x="612.0" y="104.0" width="16" height="16" rx="3.5" fill="#0E2547"/>
<rect class="c" style="animation-delay:0.616s" x="612.0" y="124.0" width="16" height="16" rx="3.5" fill="#0E2547"/>
<rect class="c" style="animation-delay:0.616s" x="612.0" y="144.0" width="16" height="16" rx="3.5" fill="#0E2547"/>
<rect class="c" style="animation-delay:0.616s" x="612.0" y="164.0" width="16" height="16" rx="3.5" fill="#0E2547"/>
<rect class="c" style="animation-delay:0.616s" x="612.0" y="184.0" width="16" height="16" rx="3.5" fill="#0E2547"/>
<rect class="c" style="animation-delay:0.616s" x="612.0" y="204.0" width="16" height="16" rx="3.5" fill="#0E2547"/>
<rect class="c" style="animation-delay:0.616s" x="612.0" y="224.0" width="16" height="16" rx="3.5" fill="#0E2547"/>
<rect class="c" style="animation-delay:0.638s" x="632.0" y="104.0" width="16" height="16" rx="3.5" fill="#0E2547"/>
<rect class="c" style="animation-delay:0.638s" x="632.0" y="124.0" width="16" height="16" rx="3.5" fill="#0E2547"/>
<rect class="c" style="animation-delay:0.638s" x="632.0" y="144.0" width="16" height="16" rx="3.5" fill="#0E2547"/>
<rect class="c" style="animation-delay:0.638s" x="632.0" y="164.0" width="16" height="16" rx="3.5" fill="#0E2547"/>
<rect class="c" style="animation-delay:0.638s" x="632.0" y="184.0" width="16" height="16" rx="3.5" fill="#0E2547"/>
<rect class="c" style="animation-delay:0.638s" x="632.0" y="204.0" width="16" height="16" rx="3.5" fill="#0E2547"/>
<rect class="c" style="animation-delay:0.638s" x="632.0" y="224.0" width="16" height="16" rx="3.5" fill="#0E2547"/>
<rect class="c" style="animation-delay:0.660s" x="652.0" y="104.0" width="16" height="16" rx="3.5" fill="#0E2547"/>
<rect class="c" style="animation-delay:0.660s" x="652.0" y="124.0" width="16" height="16" rx="3.5" fill="#0E2547"/>
<rect class="c" style="animation-delay:0.660s" x="652.0" y="144.0" width="16" height="16" rx="3.5" fill="#0E2547"/>
<rect class="c" style="animation-delay:0.660s" x="652.0" y="164.0" width="16" height="16" rx="3.5" fill="#0E2547"/>
<rect class="c" style="animation-delay:0.660s" x="652.0" y="184.0" width="16" height="16" rx="3.5" fill="#0E2547"/>
<rect class="c" style="animation-delay:0.660s" x="652.0" y="204.0" width="16" height="16" rx="3.5" fill="#0E2547"/>
<rect class="c" style="animation-delay:0.660s" x="652.0" y="224.0" width="16" height="16" rx="3.5" fill="#0E2547"/>
<rect class="c" style="animation-delay:0.682s" x="672.0" y="104.0" width="16" height="16" rx="3.5" fill="#0E2547"/>
<rect class="c" style="animation-delay:0.682s" x="672.0" y="124.0" width="16" height="16" rx="3.5" fill="#0E2547"/>
<rect class="c" style="animation-delay:0.682s" x="672.0" y="144.0" width="16" height="16" rx="3.5" fill="#0E2547"/>
<rect class="c" style="animation-delay:0.682s" x="672.0" y="164.0" width="16" height="16" rx="3.5" fill="#0E2547"/>
<rect class="c" style="animation-delay:0.682s" x="672.0" y="184.0" width="16" height="16" rx="3.5" fill="#0E2547"/>
<rect class="c" style="animation-delay:0.682s" x="672.0" y="204.0" width="16" height="16" rx="3.5" fill="#0E2547"/>
<rect class="c" style="animation-delay:0.682s" x="672.0" y="224.0" width="16" height="16" rx="3.5" fill="#0E2547"/>
<rect class="c" style="animation-delay:0.704s" x="692.0" y="104.0" width="16" height="16" rx="3.5" fill="#0E2547"/>
<rect class="c" style="animation-delay:0.704s" x="692.0" y="124.0" width="16" height="16" rx="3.5" fill="#0E2547"/>
<rect class="c" style="animation-delay:0.704s" x="692.0" y="144.0" width="16" height="16" rx="3.5" fill="#0E2547"/>
<rect class="c" style="animation-delay:0.704s" x="692.0" y="164.0" width="16" height="16" rx="3.5" fill="#0E2547"/>
<rect class="c" style="animation-delay:0.704s" x="692.0" y="184.0" width="16" height="16" rx="3.5" fill="#0E2547"/>
<rect class="c" style="animation-delay:0.704s" x="692.0" y="204.0" width="16" height="16" rx="3.5" fill="#0E2547"/>
<rect class="c" style="animation-delay:0.704s" x="692.0" y="224.0" width="16" height="16" rx="3.5" fill="#0E2547"/>
<rect class="c" style="animation-delay:0.726s" x="712.0" y="104.0" width="16" height="16" rx="3.5" fill="#0E2547"/>
<rect class="c" style="animation-delay:0.726s" x="712.0" y="124.0" width="16" height="16" rx="3.5" fill="#0E2547"/>
<rect class="c" style="animation-delay:0.726s" x="712.0" y="144.0" width="16" height="16" rx="3.5" fill="#0E2547"/>
<rect class="c" style="animation-delay:0.726s" x="712.0" y="164.0" width="16" height="16" rx="3.5" fill="#0E2547"/>
<rect class="c" style="animation-delay:0.726s" x="712.0" y="184.0" width="16" height="16" rx="3.5" fill="#0E2547"/>
<rect class="c" style="animation-delay:0.726s" x="712.0" y="204.0" width="16" height="16" rx="3.5" fill="#0E2547"/>
<rect class="c" style="animation-delay:0.726s" x="712.0" y="224.0" width="16" height="16" rx="3.5" fill="#0E2547"/>
<rect class="c" style="animation-delay:0.748s" x="732.0" y="104.0" width="16" height="16" rx="3.5" fill="#0E2547"/>
<rect class="c" style="animation-delay:0.748s" x="732.0" y="124.0" width="16" height="16" rx="3.5" fill="#0E2547"/>
<rect class="c" style="animation-delay:0.748s" x="732.0" y="144.0" width="16" height="16" rx="3.5" fill="#0E2547"/>
<rect class="c" style="animation-delay:0.748s" x="732.0" y="164.0" width="16" height="16" rx="3.5" fill="#0E2547"/>
<rect class="c" style="animation-delay:0.748s" x="732.0" y="184.0" width="16" height="16" rx="3.5" fill="#0E2547"/>
<rect class="c" style="animation-delay:0.748s" x="732.0" y="204.0" width="16" height="16" rx="3.5" fill="#0E2547"/>
<rect class="c" style="animation-delay:0.748s" x="732.0" y="224.0" width="16" height="16" rx="3.5" fill="#0E2547"/>
<rect class="c" style="animation-delay:0.770s" x="752.0" y="104.0" width="16" height="16" rx="3.5" fill="#0E2547"/>
<rect class="c" style="animation-delay:0.770s" x="752.0" y="124.0" width="16" height="16" rx="3.5" fill="#0E2547"/>
<rect class="c" style="animation-delay:0.770s" x="752.0" y="144.0" width="16" height="16" rx="3.5" fill="#0E2547"/>
<rect class="c" style="animation-delay:0.770s" x="752.0" y="164.0" width="16" height="16" rx="3.5" fill="#0E2547"/>
<rect class="c" style="animation-delay:0.770s" x="752.0" y="184.0" width="16" height="16" rx="3.5" fill="#0E2547"/>
<rect class="c" style="animation-delay:0.770s" x="752.0" y="204.0" width="16" height="16" rx="3.5" fill="#0E2547"/>
<rect class="c" style="animation-delay:0.770s" x="752.0" y="224.0" width="16" height="16" rx="3.5" fill="#0E2547"/>
<rect class="c" style="animation-delay:0.792s" x="772.0" y="104.0" width="16" height="16" rx="3.5" fill="#0E2547"/>
<rect class="c" style="animation-delay:0.792s" x="772.0" y="124.0" width="16" height="16" rx="3.5" fill="#0E2547"/>
<rect class="c" style="animation-delay:0.792s" x="772.0" y="144.0" width="16" height="16" rx="3.5" fill="#0E2547"/>
<rect class="c" style="animation-delay:0.792s" x="772.0" y="164.0" width="16" height="16" rx="3.5" fill="#0E2547"/>
<rect class="c" style="animation-delay:0.792s" x="772.0" y="184.0" width="16" height="16" rx="3.5" fill="#0E2547"/>
<rect class="c" style="animation-delay:0.792s" x="772.0" y="204.0" width="16" height="16" rx="3.5" fill="#0E2547"/>
<rect class="c" style="animation-delay:0.792s" x="772.0" y="224.0" width="16" height="16" rx="3.5" fill="#0E2547"/>
<rect class="c" style="animation-delay:0.814s" x="792.0" y="104.0" width="16" height="16" rx="3.5" fill="#0E2547"/>
<rect class="c" style="animation-delay:0.814s" x="792.0" y="124.0" width="16" height="16" rx="3.5" fill="#0E2547"/>
<rect class="c" style="animation-delay:0.814s" x="792.0" y="144.0" width="16" height="16" rx="3.5" fill="#0E2547"/>
<rect class="c" style="animation-delay:0.814s" x="792.0" y="164.0" width="16" height="16" rx="3.5" fill="#0E2547"/>
<rect class="c" style="animation-delay:0.814s" x="792.0" y="184.0" width="16" height="16" rx="3.5" fill="#0E2547"/>
<rect class="c" style="animation-delay:0.814s" x="792.0" y="204.0" width="16" height="16" rx="3.5" fill="#0E2547"/>
<rect class="c" style="animation-delay:0.814s" x="792.0" y="224.0" width="16" height="16" rx="3.5" fill="#0E2547"/>
<rect class="c" style="animation-delay:0.836s" x="812.0" y="104.0" width="16" height="16" rx="3.5" fill="#0E2547"/>
<rect class="c" style="animation-delay:0.836s" x="812.0" y="124.0" width="16" height="16" rx="3.5" fill="#0E2547"/>
<rect class="c" style="animation-delay:0.836s" x="812.0" y="144.0" width="16" height="16" rx="3.5" fill="#0E2547"/>
<rect class="c" style="animation-delay:0.836s" x="812.0" y="164.0" width="16" height="16" rx="3.5" fill="#0E2547"/>
<rect class="c" style="animation-delay:0.836s" x="812.0" y="184.0" width="16" height="16" rx="3.5" fill="#0E2547"/>
<rect class="c" style="animation-delay:0.836s" x="812.0" y="204.0" width="16" height="16" rx="3.5" fill="#0E2547"/>
<rect class="c" style="animation-delay:0.836s" x="812.0" y="224.0" width="16" height="16" rx="3.5" fill="#0E2547"/>
<rect class="c" style="animation-delay:0.858s" x="832.0" y="104.0" width="16" height="16" rx="3.5" fill="#0E2547"/>
<rect class="c" style="animation-delay:0.858s" x="832.0" y="124.0" width="16" height="16" rx="3.5" fill="#0E2547"/>
<rect class="c" style="animation-delay:0.858s" x="832.0" y="144.0" width="16" height="16" rx="3.5" fill="#0E2547"/>
<rect class="c" style="animation-delay:0.858s" x="832.0" y="164.0" width="16" height="16" rx="3.5" fill="#0E2547"/>
<rect class="c" style="animation-delay:0.858s" x="832.0" y="184.0" width="16" height="16" rx="3.5" fill="#0E2547"/>
<rect class="c" style="animation-delay:0.858s" x="832.0" y="204.0" width="16" height="16" rx="3.5" fill="#0E2547"/>
<rect class="c" style="animation-delay:0.858s" x="832.0" y="224.0" width="16" height="16" rx="3.5" fill="#0E2547"/>
<rect class="c" style="animation-delay:0.880s" x="852.0" y="104.0" width="16" height="16" rx="3.5" fill="#0E2547"/>
<rect class="c" style="animation-delay:0.880s" x="852.0" y="124.0" width="16" height="16" rx="3.5" fill="#0E2547"/>
<rect class="c" style="animation-delay:0.880s" x="852.0" y="144.0" width="16" height="16" rx="3.5" fill="#0E2547"/>
<rect class="c" style="animation-delay:0.880s" x="852.0" y="164.0" width="16" height="16" rx="3.5" fill="#0E2547"/>
<rect class="c" style="animation-delay:0.880s" x="852.0" y="184.0" width="16" height="16" rx="3.5" fill="#0E2547"/>
<rect class="c" style="animation-delay:0.880s" x="852.0" y="204.0" width="16" height="16" rx="3.5" fill="#0E2547"/>
<rect class="c" style="animation-delay:0.880s" x="852.0" y="224.0" width="16" height="16" rx="3.5" fill="#0E2547"/>
<rect class="c" style="animation-delay:0.902s" x="872.0" y="104.0" width="16" height="16" rx="3.5" fill="#0E2547"/>
<rect class="c" style="animation-delay:0.902s" x="872.0" y="124.0" width="16" height="16" rx="3.5" fill="#0E2547"/>
<rect class="c" style="animation-delay:0.902s" x="872.0" y="144.0" width="16" height="16" rx="3.5" fill="#0E2547"/>
<rect class="c" style="animation-delay:0.902s" x="872.0" y="164.0" width="16" height="16" rx="3.5" fill="#0E2547"/>
<rect class="c" style="animation-delay:0.902s" x="872.0" y="184.0" width="16" height="16" rx="3.5" fill="#0E2547"/>
<rect class="c" style="animation-delay:0.902s" x="872.0" y="204.0" width="16" height="16" rx="3.5" fill="#0E2547"/>
<rect class="c" style="animation-delay:0.902s" x="872.0" y="224.0" width="16" height="16" rx="3.5" fill="#0E2547"/>
<rect class="c" style="animation-delay:0.924s" x="892.0" y="104.0" width="16" height="16" rx="3.5" fill="#0E2547"/>
<rect class="c" style="animation-delay:0.924s" x="892.0" y="124.0" width="16" height="16" rx="3.5" fill="#0E2547"/>
<rect class="c" style="animation-delay:0.924s" x="892.0" y="144.0" width="16" height="16" rx="3.5" fill="#0E2547"/>
<rect class="c" style="animation-delay:0.924s" x="892.0" y="164.0" width="16" height="16" rx="3.5" fill="#0E2547"/>
<rect class="c" style="animation-delay:0.924s" x="892.0" y="184.0" width="16" height="16" rx="3.5" fill="#0E2547"/>
<rect class="c" style="animation-delay:0.924s" x="892.0" y="204.0" width="16" height="16" rx="3.5" fill="#0E2547"/>
<rect class="c" style="animation-delay:0.924s" x="892.0" y="224.0" width="16" height="16" rx="3.5" fill="#0E2547"/>
<rect class="c" style="animation-delay:0.946s" x="912.0" y="104.0" width="16" height="16" rx="3.5" fill="#0E2547"/>
<rect class="c" style="animation-delay:0.946s" x="912.0" y="124.0" width="16" height="16" rx="3.5" fill="#0E2547"/>
<rect class="c" style="animation-delay:0.946s" x="912.0" y="144.0" width="16" height="16" rx="3.5" fill="#1E7FA8"/>
<rect class="c" style="animation-delay:0.946s" x="912.0" y="164.0" width="16" height="16" rx="3.5" fill="#0E2547"/>
<rect class="c" style="animation-delay:0.946s" x="912.0" y="184.0" width="16" height="16" rx="3.5" fill="#17456B"/>
<rect class="c" style="animation-delay:0.946s" x="912.0" y="204.0" width="16" height="16" rx="3.5" fill="#3EB54A"/>
<rect class="c" style="animation-delay:0.946s" x="912.0" y="224.0" width="16" height="16" rx="3.5" fill="#17456B"/>
<rect class="c" style="animation-delay:0.968s" x="932.0" y="104.0" width="16" height="16" rx="3.5" fill="#17456B"/>
<rect class="c" style="animation-delay:0.968s" x="932.0" y="124.0" width="16" height="16" rx="3.5" fill="#0E2547"/>
<rect class="c" style="animation-delay:0.968s" x="932.0" y="144.0" width="16" height="16" rx="3.5" fill="#17456B"/>
<rect class="c" style="animation-delay:0.968s" x="932.0" y="164.0" width="16" height="16" rx="3.5" fill="#2BA8E0"/>
<rect class="c" style="animation-delay:0.968s" x="932.0" y="184.0" width="16" height="16" rx="3.5" fill="#0E2547"/>
<rect class="c" style="animation-delay:0.968s" x="932.0" y="204.0" width="16" height="16" rx="3.5" fill="#3EB54A"/>
<rect class="c" style="animation-delay:0.968s" x="932.0" y="224.0" width="16" height="16" rx="3.5" fill="#2BA8E0"/>
<rect class="c" style="animation-delay:0.990s" x="952.0" y="104.0" width="16" height="16" rx="3.5" fill="#2BA8E0"/>
<rect class="c" style="animation-delay:0.990s" x="952.0" y="124.0" width="16" height="16" rx="3.5" fill="#17456B"/>
<rect class="c" style="animation-delay:0.990s" x="952.0" y="144.0" width="16" height="16" rx="3.5" fill="#17456B"/>
<rect class="c" style="animation-delay:0.990s" x="952.0" y="164.0" width="16" height="16" rx="3.5" fill="#0E2547"/>
<rect class="c" style="animation-delay:0.990s" x="952.0" y="184.0" width="16" height="16" rx="3.5" fill="#17456B"/>
<rect class="c" style="animation-delay:0.990s" x="952.0" y="204.0" width="16" height="16" rx="3.5" fill="#0E2547"/>
<rect class="c" style="animation-delay:0.990s" x="952.0" y="224.0" width="16" height="16" rx="3.5" fill="#2BA8E0"/>
<rect class="c" style="animation-delay:1.012s" x="972.0" y="104.0" width="16" height="16" rx="3.5" fill="#17456B"/>
<rect class="c" style="animation-delay:1.012s" x="972.0" y="124.0" width="16" height="16" rx="3.5" fill="#3EB54A"/>
<rect class="c" style="animation-delay:1.012s" x="972.0" y="144.0" width="16" height="16" rx="3.5" fill="#3EB54A"/>
<rect class="c" style="animation-delay:1.012s" x="972.0" y="164.0" width="16" height="16" rx="3.5" fill="#3EB54A"/>
<rect class="c" style="animation-delay:1.012s" x="972.0" y="184.0" width="16" height="16" rx="3.5" fill="#3EB54A"/>
<rect class="c" style="animation-delay:1.012s" x="972.0" y="204.0" width="16" height="16" rx="3.5" fill="#1E7FA8"/>
<rect class="c" style="animation-delay:1.012s" x="972.0" y="224.0" width="16" height="16" rx="3.5" fill="#2BA8E0"/>
<rect class="c" style="animation-delay:1.034s" x="992.0" y="104.0" width="16" height="16" rx="3.5" fill="#1E7FA8"/>
<rect class="c" style="animation-delay:1.034s" x="992.0" y="124.0" width="16" height="16" rx="3.5" fill="#17456B"/>
<rect class="c" style="animation-delay:1.034s" x="992.0" y="144.0" width="16" height="16" rx="3.5" fill="#2BA8E0"/>
<rect class="c" style="animation-delay:1.034s" x="992.0" y="164.0" width="16" height="16" rx="3.5" fill="#3EB54A"/>
<rect class="c" style="animation-delay:1.034s" x="992.0" y="184.0" width="16" height="16" rx="3.5" fill="#3EB54A"/>
<rect class="c" style="animation-delay:1.034s" x="992.0" y="204.0" width="16" height="16" rx="3.5" fill="#17456B"/>
<rect class="c" style="animation-delay:1.034s" x="992.0" y="224.0" width="16" height="16" rx="3.5" fill="#2BA8E0"/>
<rect class="c" style="animation-delay:1.056s" x="1012.0" y="104.0" width="16" height="16" rx="3.5" fill="#1E7FA8"/>
<rect class="c" style="animation-delay:1.056s" x="1012.0" y="124.0" width="16" height="16" rx="3.5" fill="#0E2547"/>
<rect class="c" style="animation-delay:1.056s" x="1012.0" y="144.0" width="16" height="16" rx="3.5" fill="#0E2547"/>
<rect class="c" style="animation-delay:1.056s" x="1012.0" y="164.0" width="16" height="16" rx="3.5" fill="#0E2547"/>
<rect class="c" style="animation-delay:1.056s" x="1012.0" y="184.0" width="16" height="16" rx="3.5" fill="#0E2547"/>
<rect class="c" style="animation-delay:1.056s" x="1012.0" y="204.0" width="16" height="16" rx="3.5" fill="#2BA8E0"/>
<rect class="c" style="animation-delay:1.056s" x="1012.0" y="224.0" width="16" height="16" rx="3.5" fill="#2BA8E0"/>
<rect class="c" style="animation-delay:1.078s" x="1032.0" y="104.0" width="16" height="16" rx="3.5" fill="#0E2547"/>
<rect class="c" style="animation-delay:1.078s" x="1032.0" y="124.0" width="16" height="16" rx="3.5" fill="#17456B"/>
<rect class="c" style="animation-delay:1.078s" x="1032.0" y="144.0" width="16" height="16" rx="3.5" fill="#0E2547"/>
<rect class="c" style="animation-delay:1.078s" x="1032.0" y="164.0" width="16" height="16" rx="3.5" fill="#2BA8E0"/>
<rect class="c" style="animation-delay:1.078s" x="1032.0" y="184.0" width="16" height="16" rx="3.5" fill="#17456B"/>
<rect class="c" style="animation-delay:1.078s" x="1032.0" y="204.0" width="16" height="16" rx="3.5" fill="#2BA8E0"/>
<rect class="c" style="animation-delay:1.078s" x="1032.0" y="224.0" width="16" height="16" rx="3.5" fill="#0E2547"/>
<rect class="c" style="animation-delay:1.100s" x="1052.0" y="104.0" width="16" height="16" rx="3.5" fill="#1E7FA8"/>
<rect class="c" style="animation-delay:1.100s" x="1052.0" y="124.0" width="16" height="16" rx="3.5" fill="#2BA8E0"/>
<rect class="c" style="animation-delay:1.100s" x="1052.0" y="144.0" width="16" height="16" rx="3.5" fill="#0E2547"/>
<rect class="c" style="animation-delay:1.100s" x="1052.0" y="164.0" width="16" height="16" rx="3.5" fill="#17456B"/>
<rect class="c" style="animation-delay:1.100s" x="1052.0" y="184.0" width="16" height="16" rx="3.5" fill="#17456B"/>
<rect class="c" style="animation-delay:1.100s" x="1052.0" y="204.0" width="16" height="16" rx="3.5" fill="#2BA8E0"/>
<rect class="c" style="animation-delay:1.100s" x="1052.0" y="224.0" width="16" height="16" rx="3.5" fill="#0E2547"/>
<rect class="c" style="animation-delay:1.122s" x="1072.0" y="104.0" width="16" height="16" rx="3.5" fill="#1E7FA8"/>
<rect class="c" style="animation-delay:1.122s" x="1072.0" y="124.0" width="16" height="16" rx="3.5" fill="#0E2547"/>
<rect class="c" style="animation-delay:1.122s" x="1072.0" y="144.0" width="16" height="16" rx="3.5" fill="#0E2547"/>
<rect class="c" style="animation-delay:1.122s" x="1072.0" y="164.0" width="16" height="16" rx="3.5" fill="#17456B"/>
<rect class="c" style="animation-delay:1.122s" x="1072.0" y="184.0" width="16" height="16" rx="3.5" fill="#0E2547"/>
<rect class="c" style="animation-delay:1.122s" x="1072.0" y="204.0" width="16" height="16" rx="3.5" fill="#2BA8E0"/>
<rect class="c" style="animation-delay:1.122s" x="1072.0" y="224.0" width="16" height="16" rx="3.5" fill="#17456B"/>
<rect class="c" style="animation-delay:1.144s" x="1092.0" y="104.0" width="16" height="16" rx="3.5" fill="#0E2547"/>
<rect class="c" style="animation-delay:1.144s" x="1092.0" y="124.0" width="16" height="16" rx="3.5" fill="#0E2547"/>
<rect class="c" style="animation-delay:1.144s" x="1092.0" y="144.0" width="16" height="16" rx="3.5" fill="#17456B"/>
<rect class="c" style="animation-delay:1.144s" x="1092.0" y="164.0" width="16" height="16" rx="3.5" fill="#17456B"/>
<rect class="c" style="animation-delay:1.144s" x="1092.0" y="184.0" width="16" height="16" rx="3.5" fill="#0E2547"/>
<rect class="c" style="animation-delay:1.144s" x="1092.0" y="204.0" width="16" height="16" rx="3.5" fill="#0E2547"/>
<rect class="c" style="animation-delay:1.144s" x="1092.0" y="224.0" width="16" height="16" rx="3.5" fill="#0E2547"/>
<text x="52" y="278" font-family="Helvetica Neue, Helvetica, Arial, sans-serif" font-size="21" font-weight="700" fill="#E6EDF6">2,043</text>
<text x="52" y="297" font-family="SFMono-Regular, Consolas, Menlo, monospace" font-size="10.5" letter-spacing="2" fill="#5F779A">TOTAL SINCE JUL 2022</text>
<text x="280" y="278" font-family="Helvetica Neue, Helvetica, Arial, sans-serif" font-size="21" font-weight="700" fill="#E6EDF6">23</text>
<text x="280" y="297" font-family="SFMono-Regular, Consolas, Menlo, monospace" font-size="10.5" letter-spacing="2" fill="#5F779A">LONGEST STREAK, DAYS</text>
<text x="508" y="278" font-family="Helvetica Neue, Helvetica, Arial, sans-serif" font-size="21" font-weight="700" fill="#E6EDF6">350</text>
<text x="508" y="297" font-family="SFMono-Regular, Consolas, Menlo, monospace" font-size="10.5" letter-spacing="2" fill="#5F779A">ACTIVE DAYS</text>
<text x="994" y="280" text-anchor="end" font-family="SFMono-Regular, Consolas, Menlo, monospace" font-size="10.5" letter-spacing="1.6" fill="#5F779A">LESS</text>
<rect x="1004" y="267" width="14" height="14" rx="3.5" fill="#0E2547"/>
<rect x="1024" y="267" width="14" height="14" rx="3.5" fill="#17456B"/>
<rect x="1044" y="267" width="14" height="14" rx="3.5" fill="#1E7FA8"/>
<rect x="1064" y="267" width="14" height="14" rx="3.5" fill="#2BA8E0"/>
<rect x="1084" y="267" width="14" height="14" rx="3.5" fill="#3EB54A"/>
<text x="1106" y="280" font-family="SFMono-Regular, Consolas, Menlo, monospace" font-size="10.5" letter-spacing="1.6" fill="#5F779A">MORE</text>
</svg>
