<svg xmlns="http://www.w3.org/2000/svg" xmlns:xlink="http://www.w3.org/1999/xlink" viewBox="0 0 420 267" width="420" height="267" role="img" aria-label="Contribution heatmap for the last twelve months. 627 contributions in that period, 1,963 since July 2022, longest streak 23 days, 339 active days.">
<title>Contribution signal</title>
<style>
  .c{animation:fade .55s ease-out both}
  @keyframes fade{from{opacity:0;transform:translateY(3px)}to{opacity:1;transform:none}}
  @media (prefers-reduced-motion:reduce){.c{animation:none}}
 </style>
<defs>
<linearGradient id="sgbg" x1="0" y1="0" x2="1" y2="1"><stop offset="0%" stop-color="#0C2149"/><stop offset="55%" stop-color="#091A38"/><stop offset="100%" stop-color="#061228"/></linearGradient>
<linearGradient id="sged" x1="0" y1="0" x2="0" y2="1"><stop offset="0%" stop-color="#2BA8E0"/><stop offset="100%" stop-color="#3EB54A"/></linearGradient>
<clipPath id="sgcl"><rect x="1" y="1" width="418" height="265" rx="14"/></clipPath>
</defs>
<g clip-path="url(#sgcl)"><rect width="420" height="267" fill="url(#sgbg)"/><rect x="0" y="0" width="4" height="267" fill="url(#sged)"/></g>
<rect x="1" y="1" width="418" height="265" rx="14" fill="none" stroke="#17376A" stroke-width="1.5"/>
<text x="18" y="34" font-family="SFMono-Regular, Consolas, Menlo, monospace" font-size="11.5" font-weight="600" letter-spacing="3.2" fill="#2BA8E0">SIGNAL</text>
<line x1="98.0" y1="29.0" x2="402" y2="29.0" stroke="#17376A" stroke-width="1"/>
<text x="18" y="54" font-family="SFMono-Regular, Consolas, Menlo, monospace" font-size="9.5" letter-spacing="1.4" fill="#5F779A">627 IN THE LAST 12 MONTHS</text>
<text x="76.5" y="80" font-family="SFMono-Regular, Consolas, Menlo, monospace" font-size="9" letter-spacing="1.0" fill="#5F779A">Oct</text>
<text x="161.0" y="80" font-family="SFMono-Regular, Consolas, Menlo, monospace" font-size="9" letter-spacing="1.0" fill="#5F779A">Jan</text>
<text x="245.5" y="80" font-family="SFMono-Regular, Consolas, Menlo, monospace" font-size="9" letter-spacing="1.0" fill="#5F779A">Apr</text>
<text x="330.0" y="80" font-family="SFMono-Regular, Consolas, Menlo, monospace" font-size="9" letter-spacing="1.0" fill="#5F779A">Jul</text>
<rect class="c" style="animation-delay:0.000s" x="18.0" y="88.0" width="5" height="5" rx="1.5" fill="#0E2547"/>
<rect class="c" style="animation-delay:0.000s" x="18.0" y="94.5" width="5" height="5" rx="1.5" fill="#0E2547"/>
<rect class="c" style="animation-delay:0.000s" x="18.0" y="101.0" width="5" height="5" rx="1.5" fill="#0E2547"/>
<rect class="c" style="animation-delay:0.000s" x="18.0" y="107.5" width="5" height="5" rx="1.5" fill="#0E2547"/>
<rect class="c" style="animation-delay:0.000s" x="18.0" y="114.0" width="5" height="5" rx="1.5" fill="#0E2547"/>
<rect class="c" style="animation-delay:0.000s" x="18.0" y="120.5" width="5" height="5" rx="1.5" fill="#0E2547"/>
<rect class="c" style="animation-delay:0.000s" x="18.0" y="127.0" width="5" height="5" rx="1.5" fill="#0E2547"/>
<rect class="c" style="animation-delay:0.022s" x="24.5" y="88.0" width="5" height="5" rx="1.5" fill="#0E2547"/>
<rect class="c" style="animation-delay:0.022s" x="24.5" y="94.5" width="5" height="5" rx="1.5" fill="#0E2547"/>
<rect class="c" style="animation-delay:0.022s" x="24.5" y="101.0" width="5" height="5" rx="1.5" fill="#0E2547"/>
<rect class="c" style="animation-delay:0.022s" x="24.5" y="107.5" width="5" height="5" rx="1.5" fill="#0E2547"/>
<rect class="c" style="animation-delay:0.022s" x="24.5" y="114.0" width="5" height="5" rx="1.5" fill="#0E2547"/>
<rect class="c" style="animation-delay:0.022s" x="24.5" y="120.5" width="5" height="5" rx="1.5" fill="#0E2547"/>
<rect class="c" style="animation-delay:0.022s" x="24.5" y="127.0" width="5" height="5" rx="1.5" fill="#0E2547"/>
<rect class="c" style="animation-delay:0.044s" x="31.0" y="88.0" width="5" height="5" rx="1.5" fill="#0E2547"/>
<rect class="c" style="animation-delay:0.044s" x="31.0" y="94.5" width="5" height="5" rx="1.5" fill="#0E2547"/>
<rect class="c" style="animation-delay:0.044s" x="31.0" y="101.0" width="5" height="5" rx="1.5" fill="#0E2547"/>
<rect class="c" style="animation-delay:0.044s" x="31.0" y="107.5" width="5" height="5" rx="1.5" fill="#0E2547"/>
<rect class="c" style="animation-delay:0.044s" x="31.0" y="114.0" width="5" height="5" rx="1.5" fill="#0E2547"/>
<rect class="c" style="animation-delay:0.044s" x="31.0" y="120.5" width="5" height="5" rx="1.5" fill="#0E2547"/>
<rect class="c" style="animation-delay:0.044s" x="31.0" y="127.0" width="5" height="5" rx="1.5" fill="#0E2547"/>
<rect class="c" style="animation-delay:0.066s" x="37.5" y="88.0" width="5" height="5" rx="1.5" fill="#0E2547"/>
<rect class="c" style="animation-delay:0.066s" x="37.5" y="94.5" width="5" height="5" rx="1.5" fill="#0E2547"/>
<rect class="c" style="animation-delay:0.066s" x="37.5" y="101.0" width="5" height="5" rx="1.5" fill="#0E2547"/>
<rect class="c" style="animation-delay:0.066s" x="37.5" y="107.5" width="5" height="5" rx="1.5" fill="#0E2547"/>
<rect class="c" style="animation-delay:0.066s" x="37.5" y="114.0" width="5" height="5" rx="1.5" fill="#0E2547"/>
<rect class="c" style="animation-delay:0.066s" x="37.5" y="120.5" width="5" height="5" rx="1.5" fill="#0E2547"/>
<rect class="c" style="animation-delay:0.066s" x="37.5" y="127.0" width="5" height="5" rx="1.5" fill="#17456B"/>
<rect class="c" style="animation-delay:0.088s" x="44.0" y="88.0" width="5" height="5" rx="1.5" fill="#0E2547"/>
<rect class="c" style="animation-delay:0.088s" x="44.0" y="94.5" width="5" height="5" rx="1.5" fill="#0E2547"/>
<rect class="c" style="animation-delay:0.088s" x="44.0" y="101.0" width="5" height="5" rx="1.5" fill="#0E2547"/>
<rect class="c" style="animation-delay:0.088s" x="44.0" y="107.5" width="5" height="5" rx="1.5" fill="#0E2547"/>
<rect class="c" style="animation-delay:0.088s" x="44.0" y="114.0" width="5" height="5" rx="1.5" fill="#0E2547"/>
<rect class="c" style="animation-delay:0.088s" x="44.0" y="120.5" width="5" height="5" rx="1.5" fill="#0E2547"/>
<rect class="c" style="animation-delay:0.088s" x="44.0" y="127.0" width="5" height="5" rx="1.5" fill="#0E2547"/>
<rect class="c" style="animation-delay:0.110s" x="50.5" y="88.0" width="5" height="5" rx="1.5" fill="#0E2547"/>
<rect class="c" style="animation-delay:0.110s" x="50.5" y="94.5" width="5" height="5" rx="1.5" fill="#0E2547"/>
<rect class="c" style="animation-delay:0.110s" x="50.5" y="101.0" width="5" height="5" rx="1.5" fill="#0E2547"/>
<rect class="c" style="animation-delay:0.110s" x="50.5" y="107.5" width="5" height="5" rx="1.5" fill="#0E2547"/>
<rect class="c" style="animation-delay:0.110s" x="50.5" y="114.0" width="5" height="5" rx="1.5" fill="#0E2547"/>
<rect class="c" style="animation-delay:0.110s" x="50.5" y="120.5" width="5" height="5" rx="1.5" fill="#0E2547"/>
<rect class="c" style="animation-delay:0.110s" x="50.5" y="127.0" width="5" height="5" rx="1.5" fill="#0E2547"/>
<rect class="c" style="animation-delay:0.132s" x="57.0" y="88.0" width="5" height="5" rx="1.5" fill="#0E2547"/>
<rect class="c" style="animation-delay:0.132s" x="57.0" y="94.5" width="5" height="5" rx="1.5" fill="#0E2547"/>
<rect class="c" style="animation-delay:0.132s" x="57.0" y="101.0" width="5" height="5" rx="1.5" fill="#0E2547"/>
<rect class="c" style="animation-delay:0.132s" x="57.0" y="107.5" width="5" height="5" rx="1.5" fill="#0E2547"/>
<rect class="c" style="animation-delay:0.132s" x="57.0" y="114.0" width="5" height="5" rx="1.5" fill="#0E2547"/>
<rect class="c" style="animation-delay:0.132s" x="57.0" y="120.5" width="5" height="5" rx="1.5" fill="#0E2547"/>
<rect class="c" style="animation-delay:0.132s" x="57.0" y="127.0" width="5" height="5" rx="1.5" fill="#0E2547"/>
<rect class="c" style="animation-delay:0.154s" x="63.5" y="88.0" width="5" height="5" rx="1.5" fill="#0E2547"/>
<rect class="c" style="animation-delay:0.154s" x="63.5" y="94.5" width="5" height="5" rx="1.5" fill="#0E2547"/>
<rect class="c" style="animation-delay:0.154s" x="63.5" y="101.0" width="5" height="5" rx="1.5" fill="#0E2547"/>
<rect class="c" style="animation-delay:0.154s" x="63.5" y="107.5" width="5" height="5" rx="1.5" fill="#0E2547"/>
<rect class="c" style="animation-delay:0.154s" x="63.5" y="114.0" width="5" height="5" rx="1.5" fill="#0E2547"/>
<rect class="c" style="animation-delay:0.154s" x="63.5" y="120.5" width="5" height="5" rx="1.5" fill="#0E2547"/>
<rect class="c" style="animation-delay:0.154s" x="63.5" y="127.0" width="5" height="5" rx="1.5" fill="#0E2547"/>
<rect class="c" style="animation-delay:0.176s" x="70.0" y="88.0" width="5" height="5" rx="1.5" fill="#0E2547"/>
<rect class="c" style="animation-delay:0.176s" x="70.0" y="94.5" width="5" height="5" rx="1.5" fill="#0E2547"/>
<rect class="c" style="animation-delay:0.176s" x="70.0" y="101.0" width="5" height="5" rx="1.5" fill="#0E2547"/>
<rect class="c" style="animation-delay:0.176s" x="70.0" y="107.5" width="5" height="5" rx="1.5" fill="#0E2547"/>
<rect class="c" style="animation-delay:0.176s" x="70.0" y="114.0" width="5" height="5" rx="1.5" fill="#0E2547"/>
<rect class="c" style="animation-delay:0.176s" x="70.0" y="120.5" width="5" height="5" rx="1.5" fill="#0E2547"/>
<rect class="c" style="animation-delay:0.176s" x="70.0" y="127.0" width="5" height="5" rx="1.5" fill="#0E2547"/>
<rect class="c" style="animation-delay:0.198s" x="76.5" y="88.0" width="5" height="5" rx="1.5" fill="#0E2547"/>
<rect class="c" style="animation-delay:0.198s" x="76.5" y="94.5" width="5" height="5" rx="1.5" fill="#0E2547"/>
<rect class="c" style="animation-delay:0.198s" x="76.5" y="101.0" width="5" height="5" rx="1.5" fill="#0E2547"/>
<rect class="c" style="animation-delay:0.198s" x="76.5" y="107.5" width="5" height="5" rx="1.5" fill="#0E2547"/>
<rect class="c" style="animation-delay:0.198s" x="76.5" y="114.0" width="5" height="5" rx="1.5" fill="#0E2547"/>
<rect class="c" style="animation-delay:0.198s" x="76.5" y="120.5" width="5" height="5" rx="1.5" fill="#0E2547"/>
<rect class="c" style="animation-delay:0.198s" x="76.5" y="127.0" width="5" height="5" rx="1.5" fill="#0E2547"/>
<rect class="c" style="animation-delay:0.220s" x="83.0" y="88.0" width="5" height="5" rx="1.5" fill="#0E2547"/>
<rect class="c" style="animation-delay:0.220s" x="83.0" y="94.5" width="5" height="5" rx="1.5" fill="#0E2547"/>
<rect class="c" style="animation-delay:0.220s" x="83.0" y="101.0" width="5" height="5" rx="1.5" fill="#0E2547"/>
<rect class="c" style="animation-delay:0.220s" x="83.0" y="107.5" width="5" height="5" rx="1.5" fill="#0E2547"/>
<rect class="c" style="animation-delay:0.220s" x="83.0" y="114.0" width="5" height="5" rx="1.5" fill="#0E2547"/>
<rect class="c" style="animation-delay:0.220s" x="83.0" y="120.5" width="5" height="5" rx="1.5" fill="#0E2547"/>
<rect class="c" style="animation-delay:0.220s" x="83.0" y="127.0" width="5" height="5" rx="1.5" fill="#0E2547"/>
<rect class="c" style="animation-delay:0.242s" x="89.5" y="88.0" width="5" height="5" rx="1.5" fill="#0E2547"/>
<rect class="c" style="animation-delay:0.242s" x="89.5" y="94.5" width="5" height="5" rx="1.5" fill="#0E2547"/>
<rect class="c" style="animation-delay:0.242s" x="89.5" y="101.0" width="5" height="5" rx="1.5" fill="#0E2547"/>
<rect class="c" style="animation-delay:0.242s" x="89.5" y="107.5" width="5" height="5" rx="1.5" fill="#0E2547"/>
<rect class="c" style="animation-delay:0.242s" x="89.5" y="114.0" width="5" height="5" rx="1.5" fill="#0E2547"/>
<rect class="c" style="animation-delay:0.242s" x="89.5" y="120.5" width="5" height="5" rx="1.5" fill="#0E2547"/>
<rect class="c" style="animation-delay:0.242s" x="89.5" y="127.0" width="5" height="5" rx="1.5" fill="#0E2547"/>
<rect class="c" style="animation-delay:0.264s" x="96.0" y="88.0" width="5" height="5" rx="1.5" fill="#0E2547"/>
<rect class="c" style="animation-delay:0.264s" x="96.0" y="94.5" width="5" height="5" rx="1.5" fill="#0E2547"/>
<rect class="c" style="animation-delay:0.264s" x="96.0" y="101.0" width="5" height="5" rx="1.5" fill="#0E2547"/>
<rect class="c" style="animation-delay:0.264s" x="96.0" y="107.5" width="5" height="5" rx="1.5" fill="#0E2547"/>
<rect class="c" style="animation-delay:0.264s" x="96.0" y="114.0" width="5" height="5" rx="1.5" fill="#0E2547"/>
<rect class="c" style="animation-delay:0.264s" x="96.0" y="120.5" width="5" height="5" rx="1.5" fill="#0E2547"/>
<rect class="c" style="animation-delay:0.264s" x="96.0" y="127.0" width="5" height="5" rx="1.5" fill="#0E2547"/>
<rect class="c" style="animation-delay:0.286s" x="102.5" y="88.0" width="5" height="5" rx="1.5" fill="#0E2547"/>
<rect class="c" style="animation-delay:0.286s" x="102.5" y="94.5" width="5" height="5" rx="1.5" fill="#0E2547"/>
<rect class="c" style="animation-delay:0.286s" x="102.5" y="101.0" width="5" height="5" rx="1.5" fill="#0E2547"/>
<rect class="c" style="animation-delay:0.286s" x="102.5" y="107.5" width="5" height="5" rx="1.5" fill="#0E2547"/>
<rect class="c" style="animation-delay:0.286s" x="102.5" y="114.0" width="5" height="5" rx="1.5" fill="#0E2547"/>
<rect class="c" style="animation-delay:0.286s" x="102.5" y="120.5" width="5" height="5" rx="1.5" fill="#0E2547"/>
<rect class="c" style="animation-delay:0.286s" x="102.5" y="127.0" width="5" height="5" rx="1.5" fill="#0E2547"/>
<rect class="c" style="animation-delay:0.308s" x="109.0" y="88.0" width="5" height="5" rx="1.5" fill="#0E2547"/>
<rect class="c" style="animation-delay:0.308s" x="109.0" y="94.5" width="5" height="5" rx="1.5" fill="#0E2547"/>
<rect class="c" style="animation-delay:0.308s" x="109.0" y="101.0" width="5" height="5" rx="1.5" fill="#0E2547"/>
<rect class="c" style="animation-delay:0.308s" x="109.0" y="107.5" width="5" height="5" rx="1.5" fill="#0E2547"/>
<rect class="c" style="animation-delay:0.308s" x="109.0" y="114.0" width="5" height="5" rx="1.5" fill="#0E2547"/>
<rect class="c" style="animation-delay:0.308s" x="109.0" y="120.5" width="5" height="5" rx="1.5" fill="#0E2547"/>
<rect class="c" style="animation-delay:0.308s" x="109.0" y="127.0" width="5" height="5" rx="1.5" fill="#0E2547"/>
<rect class="c" style="animation-delay:0.330s" x="115.5" y="88.0" width="5" height="5" rx="1.5" fill="#0E2547"/>
<rect class="c" style="animation-delay:0.330s" x="115.5" y="94.5" width="5" height="5" rx="1.5" fill="#0E2547"/>
<rect class="c" style="animation-delay:0.330s" x="115.5" y="101.0" width="5" height="5" rx="1.5" fill="#0E2547"/>
<rect class="c" style="animation-delay:0.330s" x="115.5" y="107.5" width="5" height="5" rx="1.5" fill="#0E2547"/>
<rect class="c" style="animation-delay:0.330s" x="115.5" y="114.0" width="5" height="5" rx="1.5" fill="#0E2547"/>
<rect class="c" style="animation-delay:0.330s" x="115.5" y="120.5" width="5" height="5" rx="1.5" fill="#0E2547"/>
<rect class="c" style="animation-delay:0.330s" x="115.5" y="127.0" width="5" height="5" rx="1.5" fill="#0E2547"/>
<rect class="c" style="animation-delay:0.352s" x="122.0" y="88.0" width="5" height="5" rx="1.5" fill="#0E2547"/>
<rect class="c" style="animation-delay:0.352s" x="122.0" y="94.5" width="5" height="5" rx="1.5" fill="#0E2547"/>
<rect class="c" style="animation-delay:0.352s" x="122.0" y="101.0" width="5" height="5" rx="1.5" fill="#0E2547"/>
<rect class="c" style="animation-delay:0.352s" x="122.0" y="107.5" width="5" height="5" rx="1.5" fill="#0E2547"/>
<rect class="c" style="animation-delay:0.352s" x="122.0" y="114.0" width="5" height="5" rx="1.5" fill="#0E2547"/>
<rect class="c" style="animation-delay:0.352s" x="122.0" y="120.5" width="5" height="5" rx="1.5" fill="#0E2547"/>
<rect class="c" style="animation-delay:0.352s" x="122.0" y="127.0" width="5" height="5" rx="1.5" fill="#0E2547"/>
<rect class="c" style="animation-delay:0.374s" x="128.5" y="88.0" width="5" height="5" rx="1.5" fill="#0E2547"/>
<rect class="c" style="animation-delay:0.374s" x="128.5" y="94.5" width="5" height="5" rx="1.5" fill="#0E2547"/>
<rect class="c" style="animation-delay:0.374s" x="128.5" y="101.0" width="5" height="5" rx="1.5" fill="#0E2547"/>
<rect class="c" style="animation-delay:0.374s" x="128.5" y="107.5" width="5" height="5" rx="1.5" fill="#0E2547"/>
<rect class="c" style="animation-delay:0.374s" x="128.5" y="114.0" width="5" height="5" rx="1.5" fill="#0E2547"/>
<rect class="c" style="animation-delay:0.374s" x="128.5" y="120.5" width="5" height="5" rx="1.5" fill="#0E2547"/>
<rect class="c" style="animation-delay:0.374s" x="128.5" y="127.0" width="5" height="5" rx="1.5" fill="#0E2547"/>
<rect class="c" style="animation-delay:0.396s" x="135.0" y="88.0" width="5" height="5" rx="1.5" fill="#0E2547"/>
<rect class="c" style="animation-delay:0.396s" x="135.0" y="94.5" width="5" height="5" rx="1.5" fill="#0E2547"/>
<rect class="c" style="animation-delay:0.396s" x="135.0" y="101.0" width="5" height="5" rx="1.5" fill="#0E2547"/>
<rect class="c" style="animation-delay:0.396s" x="135.0" y="107.5" width="5" height="5" rx="1.5" fill="#0E2547"/>
<rect class="c" style="animation-delay:0.396s" x="135.0" y="114.0" width="5" height="5" rx="1.5" fill="#0E2547"/>
<rect class="c" style="animation-delay:0.396s" x="135.0" y="120.5" width="5" height="5" rx="1.5" fill="#0E2547"/>
<rect class="c" style="animation-delay:0.396s" x="135.0" y="127.0" width="5" height="5" rx="1.5" fill="#0E2547"/>
<rect class="c" style="animation-delay:0.418s" x="141.5" y="88.0" width="5" height="5" rx="1.5" fill="#0E2547"/>
<rect class="c" style="animation-delay:0.418s" x="141.5" y="94.5" width="5" height="5" rx="1.5" fill="#0E2547"/>
<rect class="c" style="animation-delay:0.418s" x="141.5" y="101.0" width="5" height="5" rx="1.5" fill="#0E2547"/>
<rect class="c" style="animation-delay:0.418s" x="141.5" y="107.5" width="5" height="5" rx="1.5" fill="#0E2547"/>
<rect class="c" style="animation-delay:0.418s" x="141.5" y="114.0" width="5" height="5" rx="1.5" fill="#0E2547"/>
<rect class="c" style="animation-delay:0.418s" x="141.5" y="120.5" width="5" height="5" rx="1.5" fill="#0E2547"/>
<rect class="c" style="animation-delay:0.418s" x="141.5" y="127.0" width="5" height="5" rx="1.5" fill="#0E2547"/>
<rect class="c" style="animation-delay:0.440s" x="148.0" y="88.0" width="5" height="5" rx="1.5" fill="#0E2547"/>
<rect class="c" style="animation-delay:0.440s" x="148.0" y="94.5" width="5" height="5" rx="1.5" fill="#0E2547"/>
<rect class="c" style="animation-delay:0.440s" x="148.0" y="101.0" width="5" height="5" rx="1.5" fill="#0E2547"/>
<rect class="c" style="animation-delay:0.440s" x="148.0" y="107.5" width="5" height="5" rx="1.5" fill="#0E2547"/>
<rect class="c" style="animation-delay:0.440s" x="148.0" y="114.0" width="5" height="5" rx="1.5" fill="#0E2547"/>
<rect class="c" style="animation-delay:0.440s" x="148.0" y="120.5" width="5" height="5" rx="1.5" fill="#0E2547"/>
<rect class="c" style="animation-delay:0.440s" x="148.0" y="127.0" width="5" height="5" rx="1.5" fill="#0E2547"/>
<rect class="c" style="animation-delay:0.462s" x="154.5" y="88.0" width="5" height="5" rx="1.5" fill="#0E2547"/>
<rect class="c" style="animation-delay:0.462s" x="154.5" y="94.5" width="5" height="5" rx="1.5" fill="#0E2547"/>
<rect class="c" style="animation-delay:0.462s" x="154.5" y="101.0" width="5" height="5" rx="1.5" fill="#0E2547"/>
<rect class="c" style="animation-delay:0.462s" x="154.5" y="107.5" width="5" height="5" rx="1.5" fill="#0E2547"/>
<rect class="c" style="animation-delay:0.462s" x="154.5" y="114.0" width="5" height="5" rx="1.5" fill="#0E2547"/>
<rect class="c" style="animation-delay:0.462s" x="154.5" y="120.5" width="5" height="5" rx="1.5" fill="#0E2547"/>
<rect class="c" style="animation-delay:0.462s" x="154.5" y="127.0" width="5" height="5" rx="1.5" fill="#0E2547"/>
<rect class="c" style="animation-delay:0.484s" x="161.0" y="88.0" width="5" height="5" rx="1.5" fill="#0E2547"/>
<rect class="c" style="animation-delay:0.484s" x="161.0" y="94.5" width="5" height="5" rx="1.5" fill="#0E2547"/>
<rect class="c" style="animation-delay:0.484s" x="161.0" y="101.0" width="5" height="5" rx="1.5" fill="#0E2547"/>
<rect class="c" style="animation-delay:0.484s" x="161.0" y="107.5" width="5" height="5" rx="1.5" fill="#0E2547"/>
<rect class="c" style="animation-delay:0.484s" x="161.0" y="114.0" width="5" height="5" rx="1.5" fill="#0E2547"/>
<rect class="c" style="animation-delay:0.484s" x="161.0" y="120.5" width="5" height="5" rx="1.5" fill="#0E2547"/>
<rect class="c" style="animation-delay:0.484s" x="161.0" y="127.0" width="5" height="5" rx="1.5" fill="#0E2547"/>
<rect class="c" style="animation-delay:0.506s" x="167.5" y="88.0" width="5" height="5" rx="1.5" fill="#0E2547"/>
<rect class="c" style="animation-delay:0.506s" x="167.5" y="94.5" width="5" height="5" rx="1.5" fill="#0E2547"/>
<rect class="c" style="animation-delay:0.506s" x="167.5" y="101.0" width="5" height="5" rx="1.5" fill="#0E2547"/>
<rect class="c" style="animation-delay:0.506s" x="167.5" y="107.5" width="5" height="5" rx="1.5" fill="#0E2547"/>
<rect class="c" style="animation-delay:0.506s" x="167.5" y="114.0" width="5" height="5" rx="1.5" fill="#0E2547"/>
<rect class="c" style="animation-delay:0.506s" x="167.5" y="120.5" width="5" height="5" rx="1.5" fill="#0E2547"/>
<rect class="c" style="animation-delay:0.506s" x="167.5" y="127.0" width="5" height="5" rx="1.5" fill="#0E2547"/>
<rect class="c" style="animation-delay:0.528s" x="174.0" y="88.0" width="5" height="5" rx="1.5" fill="#0E2547"/>
<rect class="c" style="animation-delay:0.528s" x="174.0" y="94.5" width="5" height="5" rx="1.5" fill="#0E2547"/>
<rect class="c" style="animation-delay:0.528s" x="174.0" y="101.0" width="5" height="5" rx="1.5" fill="#0E2547"/>
<rect class="c" style="animation-delay:0.528s" x="174.0" y="107.5" width="5" height="5" rx="1.5" fill="#0E2547"/>
<rect class="c" style="animation-delay:0.528s" x="174.0" y="114.0" width="5" height="5" rx="1.5" fill="#0E2547"/>
<rect class="c" style="animation-delay:0.528s" x="174.0" y="120.5" width="5" height="5" rx="1.5" fill="#0E2547"/>
<rect class="c" style="animation-delay:0.528s" x="174.0" y="127.0" width="5" height="5" rx="1.5" fill="#0E2547"/>
<rect class="c" style="animation-delay:0.550s" x="180.5" y="88.0" width="5" height="5" rx="1.5" fill="#0E2547"/>
<rect class="c" style="animation-delay:0.550s" x="180.5" y="94.5" width="5" height="5" rx="1.5" fill="#0E2547"/>
<rect class="c" style="animation-delay:0.550s" x="180.5" y="101.0" width="5" height="5" rx="1.5" fill="#0E2547"/>
<rect class="c" style="animation-delay:0.550s" x="180.5" y="107.5" width="5" height="5" rx="1.5" fill="#0E2547"/>
<rect class="c" style="animation-delay:0.550s" x="180.5" y="114.0" width="5" height="5" rx="1.5" fill="#0E2547"/>
<rect class="c" style="animation-delay:0.550s" x="180.5" y="120.5" width="5" height="5" rx="1.5" fill="#0E2547"/>
<rect class="c" style="animation-delay:0.550s" x="180.5" y="127.0" width="5" height="5" rx="1.5" fill="#0E2547"/>
<rect class="c" style="animation-delay:0.572s" x="187.0" y="88.0" width="5" height="5" rx="1.5" fill="#0E2547"/>
<rect class="c" style="animation-delay:0.572s" x="187.0" y="94.5" width="5" height="5" rx="1.5" fill="#0E2547"/>
<rect class="c" style="animation-delay:0.572s" x="187.0" y="101.0" width="5" height="5" rx="1.5" fill="#0E2547"/>
<rect class="c" style="animation-delay:0.572s" x="187.0" y="107.5" width="5" height="5" rx="1.5" fill="#0E2547"/>
<rect class="c" style="animation-delay:0.572s" x="187.0" y="114.0" width="5" height="5" rx="1.5" fill="#0E2547"/>
<rect class="c" style="animation-delay:0.572s" x="187.0" y="120.5" width="5" height="5" rx="1.5" fill="#0E2547"/>
<rect class="c" style="animation-delay:0.572s" x="187.0" y="127.0" width="5" height="5" rx="1.5" fill="#0E2547"/>
<rect class="c" style="animation-delay:0.594s" x="193.5" y="88.0" width="5" height="5" rx="1.5" fill="#0E2547"/>
<rect class="c" style="animation-delay:0.594s" x="193.5" y="94.5" width="5" height="5" rx="1.5" fill="#0E2547"/>
<rect class="c" style="animation-delay:0.594s" x="193.5" y="101.0" width="5" height="5" rx="1.5" fill="#0E2547"/>
<rect class="c" style="animation-delay:0.594s" x="193.5" y="107.5" width="5" height="5" rx="1.5" fill="#0E2547"/>
<rect class="c" style="animation-delay:0.594s" x="193.5" y="114.0" width="5" height="5" rx="1.5" fill="#0E2547"/>
<rect class="c" style="animation-delay:0.594s" x="193.5" y="120.5" width="5" height="5" rx="1.5" fill="#0E2547"/>
<rect class="c" style="animation-delay:0.594s" x="193.5" y="127.0" width="5" height="5" rx="1.5" fill="#0E2547"/>
<rect class="c" style="animation-delay:0.616s" x="200.0" y="88.0" width="5" height="5" rx="1.5" fill="#0E2547"/>
<rect class="c" style="animation-delay:0.616s" x="200.0" y="94.5" width="5" height="5" rx="1.5" fill="#0E2547"/>
<rect class="c" style="animation-delay:0.616s" x="200.0" y="101.0" width="5" height="5" rx="1.5" fill="#0E2547"/>
<rect class="c" style="animation-delay:0.616s" x="200.0" y="107.5" width="5" height="5" rx="1.5" fill="#0E2547"/>
<rect class="c" style="animation-delay:0.616s" x="200.0" y="114.0" width="5" height="5" rx="1.5" fill="#0E2547"/>
<rect class="c" style="animation-delay:0.616s" x="200.0" y="120.5" width="5" height="5" rx="1.5" fill="#0E2547"/>
<rect class="c" style="animation-delay:0.616s" x="200.0" y="127.0" width="5" height="5" rx="1.5" fill="#0E2547"/>
<rect class="c" style="animation-delay:0.638s" x="206.5" y="88.0" width="5" height="5" rx="1.5" fill="#0E2547"/>
<rect class="c" style="animation-delay:0.638s" x="206.5" y="94.5" width="5" height="5" rx="1.5" fill="#0E2547"/>
<rect class="c" style="animation-delay:0.638s" x="206.5" y="101.0" width="5" height="5" rx="1.5" fill="#0E2547"/>
<rect class="c" style="animation-delay:0.638s" x="206.5" y="107.5" width="5" height="5" rx="1.5" fill="#0E2547"/>
<rect class="c" style="animation-delay:0.638s" x="206.5" y="114.0" width="5" height="5" rx="1.5" fill="#0E2547"/>
<rect class="c" style="animation-delay:0.638s" x="206.5" y="120.5" width="5" height="5" rx="1.5" fill="#0E2547"/>
<rect class="c" style="animation-delay:0.638s" x="206.5" y="127.0" width="5" height="5" rx="1.5" fill="#0E2547"/>
<rect class="c" style="animation-delay:0.660s" x="213.0" y="88.0" width="5" height="5" rx="1.5" fill="#0E2547"/>
<rect class="c" style="animation-delay:0.660s" x="213.0" y="94.5" width="5" height="5" rx="1.5" fill="#0E2547"/>
<rect class="c" style="animation-delay:0.660s" x="213.0" y="101.0" width="5" height="5" rx="1.5" fill="#0E2547"/>
<rect class="c" style="animation-delay:0.660s" x="213.0" y="107.5" width="5" height="5" rx="1.5" fill="#0E2547"/>
<rect class="c" style="animation-delay:0.660s" x="213.0" y="114.0" width="5" height="5" rx="1.5" fill="#0E2547"/>
<rect class="c" style="animation-delay:0.660s" x="213.0" y="120.5" width="5" height="5" rx="1.5" fill="#0E2547"/>
<rect class="c" style="animation-delay:0.660s" x="213.0" y="127.0" width="5" height="5" rx="1.5" fill="#0E2547"/>
<rect class="c" style="animation-delay:0.682s" x="219.5" y="88.0" width="5" height="5" rx="1.5" fill="#0E2547"/>
<rect class="c" style="animation-delay:0.682s" x="219.5" y="94.5" width="5" height="5" rx="1.5" fill="#0E2547"/>
<rect class="c" style="animation-delay:0.682s" x="219.5" y="101.0" width="5" height="5" rx="1.5" fill="#0E2547"/>
<rect class="c" style="animation-delay:0.682s" x="219.5" y="107.5" width="5" height="5" rx="1.5" fill="#0E2547"/>
<rect class="c" style="animation-delay:0.682s" x="219.5" y="114.0" width="5" height="5" rx="1.5" fill="#0E2547"/>
<rect class="c" style="animation-delay:0.682s" x="219.5" y="120.5" width="5" height="5" rx="1.5" fill="#0E2547"/>
<rect class="c" style="animation-delay:0.682s" x="219.5" y="127.0" width="5" height="5" rx="1.5" fill="#0E2547"/>
<rect class="c" style="animation-delay:0.704s" x="226.0" y="88.0" width="5" height="5" rx="1.5" fill="#0E2547"/>
<rect class="c" style="animation-delay:0.704s" x="226.0" y="94.5" width="5" height="5" rx="1.5" fill="#0E2547"/>
<rect class="c" style="animation-delay:0.704s" x="226.0" y="101.0" width="5" height="5" rx="1.5" fill="#0E2547"/>
<rect class="c" style="animation-delay:0.704s" x="226.0" y="107.5" width="5" height="5" rx="1.5" fill="#0E2547"/>
<rect class="c" style="animation-delay:0.704s" x="226.0" y="114.0" width="5" height="5" rx="1.5" fill="#0E2547"/>
<rect class="c" style="animation-delay:0.704s" x="226.0" y="120.5" width="5" height="5" rx="1.5" fill="#0E2547"/>
<rect class="c" style="animation-delay:0.704s" x="226.0" y="127.0" width="5" height="5" rx="1.5" fill="#0E2547"/>
<rect class="c" style="animation-delay:0.726s" x="232.5" y="88.0" width="5" height="5" rx="1.5" fill="#0E2547"/>
<rect class="c" style="animation-delay:0.726s" x="232.5" y="94.5" width="5" height="5" rx="1.5" fill="#0E2547"/>
<rect class="c" style="animation-delay:0.726s" x="232.5" y="101.0" width="5" height="5" rx="1.5" fill="#0E2547"/>
<rect class="c" style="animation-delay:0.726s" x="232.5" y="107.5" width="5" height="5" rx="1.5" fill="#0E2547"/>
<rect class="c" style="animation-delay:0.726s" x="232.5" y="114.0" width="5" height="5" rx="1.5" fill="#0E2547"/>
<rect class="c" style="animation-delay:0.726s" x="232.5" y="120.5" width="5" height="5" rx="1.5" fill="#0E2547"/>
<rect class="c" style="animation-delay:0.726s" x="232.5" y="127.0" width="5" height="5" rx="1.5" fill="#0E2547"/>
<rect class="c" style="animation-delay:0.748s" x="239.0" y="88.0" width="5" height="5" rx="1.5" fill="#0E2547"/>
<rect class="c" style="animation-delay:0.748s" x="239.0" y="94.5" width="5" height="5" rx="1.5" fill="#0E2547"/>
<rect class="c" style="animation-delay:0.748s" x="239.0" y="101.0" width="5" height="5" rx="1.5" fill="#0E2547"/>
<rect class="c" style="animation-delay:0.748s" x="239.0" y="107.5" width="5" height="5" rx="1.5" fill="#0E2547"/>
<rect class="c" style="animation-delay:0.748s" x="239.0" y="114.0" width="5" height="5" rx="1.5" fill="#0E2547"/>
<rect class="c" style="animation-delay:0.748s" x="239.0" y="120.5" width="5" height="5" rx="1.5" fill="#0E2547"/>
<rect class="c" style="animation-delay:0.748s" x="239.0" y="127.0" width="5" height="5" rx="1.5" fill="#0E2547"/>
<rect class="c" style="animation-delay:0.770s" x="245.5" y="88.0" width="5" height="5" rx="1.5" fill="#0E2547"/>
<rect class="c" style="animation-delay:0.770s" x="245.5" y="94.5" width="5" height="5" rx="1.5" fill="#0E2547"/>
<rect class="c" style="animation-delay:0.770s" x="245.5" y="101.0" width="5" height="5" rx="1.5" fill="#0E2547"/>
<rect class="c" style="animation-delay:0.770s" x="245.5" y="107.5" width="5" height="5" rx="1.5" fill="#0E2547"/>
<rect class="c" style="animation-delay:0.770s" x="245.5" y="114.0" width="5" height="5" rx="1.5" fill="#0E2547"/>
<rect class="c" style="animation-delay:0.770s" x="245.5" y="120.5" width="5" height="5" rx="1.5" fill="#0E2547"/>
<rect class="c" style="animation-delay:0.770s" x="245.5" y="127.0" width="5" height="5" rx="1.5" fill="#0E2547"/>
<rect class="c" style="animation-delay:0.792s" x="252.0" y="88.0" width="5" height="5" rx="1.5" fill="#0E2547"/>
<rect class="c" style="animation-delay:0.792s" x="252.0" y="94.5" width="5" height="5" rx="1.5" fill="#0E2547"/>
<rect class="c" style="animation-delay:0.792s" x="252.0" y="101.0" width="5" height="5" rx="1.5" fill="#0E2547"/>
<rect class="c" style="animation-delay:0.792s" x="252.0" y="107.5" width="5" height="5" rx="1.5" fill="#0E2547"/>
<rect class="c" style="animation-delay:0.792s" x="252.0" y="114.0" width="5" height="5" rx="1.5" fill="#0E2547"/>
<rect class="c" style="animation-delay:0.792s" x="252.0" y="120.5" width="5" height="5" rx="1.5" fill="#0E2547"/>
<rect class="c" style="animation-delay:0.792s" x="252.0" y="127.0" width="5" height="5" rx="1.5" fill="#0E2547"/>
<rect class="c" style="animation-delay:0.814s" x="258.5" y="88.0" width="5" height="5" rx="1.5" fill="#0E2547"/>
<rect class="c" style="animation-delay:0.814s" x="258.5" y="94.5" width="5" height="5" rx="1.5" fill="#0E2547"/>
<rect class="c" style="animation-delay:0.814s" x="258.5" y="101.0" width="5" height="5" rx="1.5" fill="#0E2547"/>
<rect class="c" style="animation-delay:0.814s" x="258.5" y="107.5" width="5" height="5" rx="1.5" fill="#0E2547"/>
<rect class="c" style="animation-delay:0.814s" x="258.5" y="114.0" width="5" height="5" rx="1.5" fill="#0E2547"/>
<rect class="c" style="animation-delay:0.814s" x="258.5" y="120.5" width="5" height="5" rx="1.5" fill="#0E2547"/>
<rect class="c" style="animation-delay:0.814s" x="258.5" y="127.0" width="5" height="5" rx="1.5" fill="#0E2547"/>
<rect class="c" style="animation-delay:0.836s" x="265.0" y="88.0" width="5" height="5" rx="1.5" fill="#0E2547"/>
<rect class="c" style="animation-delay:0.836s" x="265.0" y="94.5" width="5" height="5" rx="1.5" fill="#0E2547"/>
<rect class="c" style="animation-delay:0.836s" x="265.0" y="101.0" width="5" height="5" rx="1.5" fill="#0E2547"/>
<rect class="c" style="animation-delay:0.836s" x="265.0" y="107.5" width="5" height="5" rx="1.5" fill="#0E2547"/>
<rect class="c" style="animation-delay:0.836s" x="265.0" y="114.0" width="5" height="5" rx="1.5" fill="#0E2547"/>
<rect class="c" style="animation-delay:0.836s" x="265.0" y="120.5" width="5" height="5" rx="1.5" fill="#0E2547"/>
<rect class="c" style="animation-delay:0.836s" x="265.0" y="127.0" width="5" height="5" rx="1.5" fill="#0E2547"/>
<rect class="c" style="animation-delay:0.858s" x="271.5" y="88.0" width="5" height="5" rx="1.5" fill="#0E2547"/>
<rect class="c" style="animation-delay:0.858s" x="271.5" y="94.5" width="5" height="5" rx="1.5" fill="#0E2547"/>
<rect class="c" style="animation-delay:0.858s" x="271.5" y="101.0" width="5" height="5" rx="1.5" fill="#0E2547"/>
<rect class="c" style="animation-delay:0.858s" x="271.5" y="107.5" width="5" height="5" rx="1.5" fill="#0E2547"/>
<rect class="c" style="animation-delay:0.858s" x="271.5" y="114.0" width="5" height="5" rx="1.5" fill="#0E2547"/>
<rect class="c" style="animation-delay:0.858s" x="271.5" y="120.5" width="5" height="5" rx="1.5" fill="#0E2547"/>
<rect class="c" style="animation-delay:0.858s" x="271.5" y="127.0" width="5" height="5" rx="1.5" fill="#0E2547"/>
<rect class="c" style="animation-delay:0.880s" x="278.0" y="88.0" width="5" height="5" rx="1.5" fill="#0E2547"/>
<rect class="c" style="animation-delay:0.880s" x="278.0" y="94.5" width="5" height="5" rx="1.5" fill="#0E2547"/>
<rect class="c" style="animation-delay:0.880s" x="278.0" y="101.0" width="5" height="5" rx="1.5" fill="#0E2547"/>
<rect class="c" style="animation-delay:0.880s" x="278.0" y="107.5" width="5" height="5" rx="1.5" fill="#0E2547"/>
<rect class="c" style="animation-delay:0.880s" x="278.0" y="114.0" width="5" height="5" rx="1.5" fill="#0E2547"/>
<rect class="c" style="animation-delay:0.880s" x="278.0" y="120.5" width="5" height="5" rx="1.5" fill="#0E2547"/>
<rect class="c" style="animation-delay:0.880s" x="278.0" y="127.0" width="5" height="5" rx="1.5" fill="#0E2547"/>
<rect class="c" style="animation-delay:0.902s" x="284.5" y="88.0" width="5" height="5" rx="1.5" fill="#0E2547"/>
<rect class="c" style="animation-delay:0.902s" x="284.5" y="94.5" width="5" height="5" rx="1.5" fill="#0E2547"/>
<rect class="c" style="animation-delay:0.902s" x="284.5" y="101.0" width="5" height="5" rx="1.5" fill="#0E2547"/>
<rect class="c" style="animation-delay:0.902s" x="284.5" y="107.5" width="5" height="5" rx="1.5" fill="#0E2547"/>
<rect class="c" style="animation-delay:0.902s" x="284.5" y="114.0" width="5" height="5" rx="1.5" fill="#0E2547"/>
<rect class="c" style="animation-delay:0.902s" x="284.5" y="120.5" width="5" height="5" rx="1.5" fill="#0E2547"/>
<rect class="c" style="animation-delay:0.902s" x="284.5" y="127.0" width="5" height="5" rx="1.5" fill="#0E2547"/>
<rect class="c" style="animation-delay:0.924s" x="291.0" y="88.0" width="5" height="5" rx="1.5" fill="#0E2547"/>
<rect class="c" style="animation-delay:0.924s" x="291.0" y="94.5" width="5" height="5" rx="1.5" fill="#0E2547"/>
<rect class="c" style="animation-delay:0.924s" x="291.0" y="101.0" width="5" height="5" rx="1.5" fill="#0E2547"/>
<rect class="c" style="animation-delay:0.924s" x="291.0" y="107.5" width="5" height="5" rx="1.5" fill="#0E2547"/>
<rect class="c" style="animation-delay:0.924s" x="291.0" y="114.0" width="5" height="5" rx="1.5" fill="#0E2547"/>
<rect class="c" style="animation-delay:0.924s" x="291.0" y="120.5" width="5" height="5" rx="1.5" fill="#0E2547"/>
<rect class="c" style="animation-delay:0.924s" x="291.0" y="127.0" width="5" height="5" rx="1.5" fill="#0E2547"/>
<rect class="c" style="animation-delay:0.946s" x="297.5" y="88.0" width="5" height="5" rx="1.5" fill="#0E2547"/>
<rect class="c" style="animation-delay:0.946s" x="297.5" y="94.5" width="5" height="5" rx="1.5" fill="#0E2547"/>
<rect class="c" style="animation-delay:0.946s" x="297.5" y="101.0" width="5" height="5" rx="1.5" fill="#0E2547"/>
<rect class="c" style="animation-delay:0.946s" x="297.5" y="107.5" width="5" height="5" rx="1.5" fill="#0E2547"/>
<rect class="c" style="animation-delay:0.946s" x="297.5" y="114.0" width="5" height="5" rx="1.5" fill="#0E2547"/>
<rect class="c" style="animation-delay:0.946s" x="297.5" y="120.5" width="5" height="5" rx="1.5" fill="#0E2547"/>
<rect class="c" style="animation-delay:0.946s" x="297.5" y="127.0" width="5" height="5" rx="1.5" fill="#0E2547"/>
<rect class="c" style="animation-delay:0.968s" x="304.0" y="88.0" width="5" height="5" rx="1.5" fill="#0E2547"/>
<rect class="c" style="animation-delay:0.968s" x="304.0" y="94.5" width="5" height="5" rx="1.5" fill="#0E2547"/>
<rect class="c" style="animation-delay:0.968s" x="304.0" y="101.0" width="5" height="5" rx="1.5" fill="#0E2547"/>
<rect class="c" style="animation-delay:0.968s" x="304.0" y="107.5" width="5" height="5" rx="1.5" fill="#0E2547"/>
<rect class="c" style="animation-delay:0.968s" x="304.0" y="114.0" width="5" height="5" rx="1.5" fill="#0E2547"/>
<rect class="c" style="animation-delay:0.968s" x="304.0" y="120.5" width="5" height="5" rx="1.5" fill="#0E2547"/>
<rect class="c" style="animation-delay:0.968s" x="304.0" y="127.0" width="5" height="5" rx="1.5" fill="#0E2547"/>
<rect class="c" style="animation-delay:0.990s" x="310.5" y="88.0" width="5" height="5" rx="1.5" fill="#0E2547"/>
<rect class="c" style="animation-delay:0.990s" x="310.5" y="94.5" width="5" height="5" rx="1.5" fill="#0E2547"/>
<rect class="c" style="animation-delay:0.990s" x="310.5" y="101.0" width="5" height="5" rx="1.5" fill="#1E7FA8"/>
<rect class="c" style="animation-delay:0.990s" x="310.5" y="107.5" width="5" height="5" rx="1.5" fill="#0E2547"/>
<rect class="c" style="animation-delay:0.990s" x="310.5" y="114.0" width="5" height="5" rx="1.5" fill="#17456B"/>
<rect class="c" style="animation-delay:0.990s" x="310.5" y="120.5" width="5" height="5" rx="1.5" fill="#3EB54A"/>
<rect class="c" style="animation-delay:0.990s" x="310.5" y="127.0" width="5" height="5" rx="1.5" fill="#17456B"/>
<rect class="c" style="animation-delay:1.012s" x="317.0" y="88.0" width="5" height="5" rx="1.5" fill="#17456B"/>
<rect class="c" style="animation-delay:1.012s" x="317.0" y="94.5" width="5" height="5" rx="1.5" fill="#0E2547"/>
<rect class="c" style="animation-delay:1.012s" x="317.0" y="101.0" width="5" height="5" rx="1.5" fill="#17456B"/>
<rect class="c" style="animation-delay:1.012s" x="317.0" y="107.5" width="5" height="5" rx="1.5" fill="#2BA8E0"/>
<rect class="c" style="animation-delay:1.012s" x="317.0" y="114.0" width="5" height="5" rx="1.5" fill="#0E2547"/>
<rect class="c" style="animation-delay:1.012s" x="317.0" y="120.5" width="5" height="5" rx="1.5" fill="#3EB54A"/>
<rect class="c" style="animation-delay:1.012s" x="317.0" y="127.0" width="5" height="5" rx="1.5" fill="#2BA8E0"/>
<rect class="c" style="animation-delay:1.034s" x="323.5" y="88.0" width="5" height="5" rx="1.5" fill="#1E7FA8"/>
<rect class="c" style="animation-delay:1.034s" x="323.5" y="94.5" width="5" height="5" rx="1.5" fill="#17456B"/>
<rect class="c" style="animation-delay:1.034s" x="323.5" y="101.0" width="5" height="5" rx="1.5" fill="#17456B"/>
<rect class="c" style="animation-delay:1.034s" x="323.5" y="107.5" width="5" height="5" rx="1.5" fill="#0E2547"/>
<rect class="c" style="animation-delay:1.034s" x="323.5" y="114.0" width="5" height="5" rx="1.5" fill="#17456B"/>
<rect class="c" style="animation-delay:1.034s" x="323.5" y="120.5" width="5" height="5" rx="1.5" fill="#0E2547"/>
<rect class="c" style="animation-delay:1.034s" x="323.5" y="127.0" width="5" height="5" rx="1.5" fill="#2BA8E0"/>
<rect class="c" style="animation-delay:1.056s" x="330.0" y="88.0" width="5" height="5" rx="1.5" fill="#17456B"/>
<rect class="c" style="animation-delay:1.056s" x="330.0" y="94.5" width="5" height="5" rx="1.5" fill="#3EB54A"/>
<rect class="c" style="animation-delay:1.056s" x="330.0" y="101.0" width="5" height="5" rx="1.5" fill="#3EB54A"/>
<rect class="c" style="animation-delay:1.056s" x="330.0" y="107.5" width="5" height="5" rx="1.5" fill="#3EB54A"/>
<rect class="c" style="animation-delay:1.056s" x="330.0" y="114.0" width="5" height="5" rx="1.5" fill="#2BA8E0"/>
<rect class="c" style="animation-delay:1.056s" x="330.0" y="120.5" width="5" height="5" rx="1.5" fill="#1E7FA8"/>
<rect class="c" style="animation-delay:1.056s" x="330.0" y="127.0" width="5" height="5" rx="1.5" fill="#1E7FA8"/>
<rect class="c" style="animation-delay:1.078s" x="336.5" y="88.0" width="5" height="5" rx="1.5" fill="#1E7FA8"/>
<rect class="c" style="animation-delay:1.078s" x="336.5" y="94.5" width="5" height="5" rx="1.5" fill="#17456B"/>
<rect class="c" style="animation-delay:1.078s" x="336.5" y="101.0" width="5" height="5" rx="1.5" fill="#1E7FA8"/>
<rect class="c" style="animation-delay:1.078s" x="336.5" y="107.5" width="5" height="5" rx="1.5" fill="#3EB54A"/>
<rect class="c" style="animation-delay:1.078s" x="336.5" y="114.0" width="5" height="5" rx="1.5" fill="#3EB54A"/>
<rect class="c" style="animation-delay:1.078s" x="336.5" y="120.5" width="5" height="5" rx="1.5" fill="#17456B"/>
<rect class="c" style="animation-delay:1.078s" x="336.5" y="127.0" width="5" height="5" rx="1.5" fill="#2BA8E0"/>
<rect class="c" style="animation-delay:1.100s" x="343.0" y="88.0" width="5" height="5" rx="1.5" fill="#1E7FA8"/>
<rect class="c" style="animation-delay:1.100s" x="343.0" y="94.5" width="5" height="5" rx="1.5" fill="#0E2547"/>
<rect class="c" style="animation-delay:1.100s" x="343.0" y="101.0" width="5" height="5" rx="1.5" fill="#0E2547"/>
<rect class="c" style="animation-delay:1.100s" x="343.0" y="107.5" width="5" height="5" rx="1.5" fill="#0E2547"/>
<rect class="c" style="animation-delay:1.100s" x="343.0" y="114.0" width="5" height="5" rx="1.5" fill="#0E2547"/>
<rect class="c" style="animation-delay:1.100s" x="343.0" y="120.5" width="5" height="5" rx="1.5" fill="#1E7FA8"/>
<rect class="c" style="animation-delay:1.100s" x="343.0" y="127.0" width="5" height="5" rx="1.5" fill="#2BA8E0"/>
<rect class="c" style="animation-delay:1.122s" x="349.5" y="88.0" width="5" height="5" rx="1.5" fill="#0E2547"/>
<rect class="c" style="animation-delay:1.122s" x="349.5" y="94.5" width="5" height="5" rx="1.5" fill="#17456B"/>
<rect class="c" style="animation-delay:1.122s" x="349.5" y="101.0" width="5" height="5" rx="1.5" fill="#0E2547"/>
<rect class="c" style="animation-delay:1.122s" x="349.5" y="107.5" width="5" height="5" rx="1.5" fill="#2BA8E0"/>
<rect class="c" style="animation-delay:1.122s" x="349.5" y="114.0" width="5" height="5" rx="1.5" fill="#17456B"/>
<rect class="c" style="animation-delay:1.122s" x="349.5" y="120.5" width="5" height="5" rx="1.5" fill="#2BA8E0"/>
<rect class="c" style="animation-delay:1.122s" x="349.5" y="127.0" width="5" height="5" rx="1.5" fill="#0E2547"/>
<rect class="c" style="animation-delay:1.144s" x="356.0" y="88.0" width="5" height="5" rx="1.5" fill="#0E2547"/>
<text x="18" y="159.5" font-family="Helvetica Neue, Helvetica, Arial, sans-serif" font-size="17" font-weight="700" fill="#E6EDF6">1,963</text>
<text x="90" y="159.5" font-family="SFMono-Regular, Consolas, Menlo, monospace" font-size="9.5" letter-spacing="1.6" fill="#5F779A">TOTAL SINCE JUL 2022</text>
<text x="18" y="193.5" font-family="Helvetica Neue, Helvetica, Arial, sans-serif" font-size="17" font-weight="700" fill="#E6EDF6">23</text>
<text x="90" y="193.5" font-family="SFMono-Regular, Consolas, Menlo, monospace" font-size="9.5" letter-spacing="1.6" fill="#5F779A">LONGEST STREAK, DAYS</text>
<text x="18" y="227.5" font-family="Helvetica Neue, Helvetica, Arial, sans-serif" font-size="17" font-weight="700" fill="#E6EDF6">339</text>
<text x="90" y="227.5" font-family="SFMono-Regular, Consolas, Menlo, monospace" font-size="9.5" letter-spacing="1.6" fill="#5F779A">ACTIVE DAYS</text>
</svg>
